<?xml version="1.0" encoding="UTF-8" standalone="no"?>
<svg
   width="429"
   height="100.00525"
   viewBox="0 0 370.08333 86.271042"
   class="looka-1j8o68f"
   version="1.1"
   id="svg5"
   sodipodi:docname="logo-coffe.svg"
   inkscape:export-filename="logo-coffe.svg"
   inkscape:export-xdpi="96"
   inkscape:export-ydpi="96"
   xmlns:inkscape="http://www.inkscape.org/namespaces/inkscape"
   xmlns:sodipodi="http://sodipodi.sourceforge.net/DTD/sodipodi-0.dtd"
   xmlns="http://www.w3.org/2000/svg"
   xmlns:svg="http://www.w3.org/2000/svg">
  <sodipodi:namedview
     id="namedview5"
     pagecolor="#ffffff"
     bordercolor="#000000"
     borderopacity="0.25"
     inkscape:showpageshadow="2"
     inkscape:pageopacity="0.0"
     inkscape:pagecheckerboard="0"
     inkscape:deskcolor="#d1d1d1" />
  <defs
     id="SvgjsDefs2882" />
  <g
     id="SvgjsG2883"
     featurekey="symbolFeature-0"
     transform="matrix(0.06076389,0,0,0.06076389,0,7)"
     fill="#111111"
     style="fill:#ffffff">
    <g
       id="SvgjsG3238"
       style="fill:#ffffff">
      <path
         class="st0"
         d="M 600,0 C 269.2,0 0,269.2 0,600 c 0,330.8 269.2,600 600,600 330.8,0 600,-269.2 600,-600 C 1200,269.2 930.8,0 600,0 Z m 0,1179 C 280.8,1179 21,919.2 21,600 21,280.8 280.7,21 600,21 c 319.3,0 579,259.7 579,579 0,319.3 -259.7,579 -579,579 z"
         style="fill:#ffffff"
         id="path1" />
      <path
         class="st0"
         d="m 1103.9,767.2 c -4.8,-23.7 -18.9,-44.5 -39.2,-57.7 l -84.1,-55.3 c -7.1,-4.7 -14.9,-8.3 -23,-10.8 C 974.4,596.9 983,547.9 983,498.5 983,261.4 790.1,68.6 553.1,68.6 c -237,0 -429.8,192.8 -429.8,429.9 0,237.1 192.9,429.9 429.9,429.9 117.8,0 230.8,-49 312,-134.8 4.6,4.9 9.7,9.2 15.3,12.9 l 84,55.3 c 42.1,27.7 98.6,16 126.2,-26.1 13.4,-20.2 18.1,-44.9 13.2,-68.5 z m -30.7,57 c -21.3,32.3 -64.8,41.3 -97.1,20 l -84,-55.3 c -7,-4.7 -13.1,-10.6 -18,-17.4 -1.9,-2.6 -4.8,-4.2 -8,-4.3 -2.6,-0.3 -6.2,1.1 -8.4,3.5 C 780,857.5 669,907.4 553.2,907.4 327.8,907.4 144.3,724 144.3,498.5 144.3,273 327.7,89.6 553.2,89.6 c 225.5,0 408.9,183.4 408.9,408.9 -0.1,50.8 -9.6,101.2 -28.3,148.5 -2.1,5.4 0.5,11.5 5.9,13.6 0.7,0.3 1.4,0.5 2.2,0.6 9.7,1.6 18.9,5.1 27.2,10.5 l 84.1,55.3 c 32.3,21.3 41.3,64.8 20,97.2 z"
         style="fill:#ffffff"
         id="path2" />
      <path
         class="st0"
         d="m 553.2,150.1 c -193.6,0 -351.1,157.5 -351.1,351.1 0,193.6 157.5,351.1 351.1,351.1 193.6,0 351.1,-157.5 351.1,-351 0,-193.5 -157.6,-351.2 -351.1,-351.2 z M 367.8,524.2 c 5.1,69.9 45.8,122.3 114.4,147.6 37.9,14 87.5,12.4 121.5,-4.6 27.5,-13.7 45.7,-36.3 52.7,-65.4 8.3,-34.7 -0.9,-75.6 -23.9,-106.7 -17.9,-24.2 -53.1,-41.1 -85.4,-41.1 -34.2,0 -58.8,18.5 -65.7,49.4 -3.8,16.6 0.4,34.4 11.9,50.2 9.7,13.5 23.6,24.3 40.1,31.6 -4.7,0.6 -9.5,1 -14.3,1 -24.1,0 -56,-8.6 -70.5,-49.7 -8.3,-23.5 -2.1,-55.9 15.5,-80.7 31.4,-44.3 89.2,-53.8 153.5,-22.7 34.9,16.8 60.2,47.2 71.3,85.6 11.3,38.7 6.1,79.8 -14.2,112.5 -40.9,65.9 -110.2,75.7 -147.8,75.7 -18.2,0 -36.5,-2.4 -50.2,-6.5 C 398.6,677 344,607.6 337.3,523.5 329.3,422.3 389.8,332.4 484.4,305 c 7.4,-2.2 27.9,-7.1 58.7,-7.1 36.2,0 104.2,7.5 152.5,57.6 25.3,26.2 42.1,60.8 50.2,103.2 -28.4,-60 -84.6,-132.2 -190.8,-132.2 -19.9,0.1 -39.7,2.4 -59.2,6.8 -78.4,17.2 -134.6,101.1 -128,190.9 z"
         style="fill:#ffffff"
         id="path3" />
    </g>
  </g>
  <g
     id="SvgjsG2884"
     featurekey="nameFeature-0"
     transform="matrix(1.2569559,0,0,1.2569559,91.189984,-19.256563)"
     fill="#111111"
     style="fill:#ffffff">
    <path
       d="m 21.52,33.16 v 6.16 C 19.04,40 16.56,40.28 14,40.28 6.48,40.28 1.44,35.12 1.44,27.8 c 0,-7.52 5.24,-12.48 12.52,-12.48 2.52,0 5.16,0.2 7.56,0.96 v 6.16 c -1.96,-0.96 -5.04,-1.32 -7.2,-1.32 -4.88,0 -6.88,2 -6.88,6.64 0,4.92 2.36,6.72 6.92,6.72 2.04,0 5.36,-0.32 7.16,-1.32 z M 31,21.16 V 27 h 5.6 c 1.84,0 2.92,-1.08 2.92,-2.92 0,-1.84 -1.08,-2.92 -2.92,-2.92 z m 9.08,9.8 c 1.12,1.52 2.24,3.04 3.4,4.52 1.12,1.48 2.24,3 3.36,4.52 H 39.52 C 38.08,38.08 36.68,36.16 35.28,34.24 33.88,32.36 32.44,30.44 31,28.52 V 40 H 25 V 15.52 h 11.6 c 4.56,0 8.44,3.48 8.44,8.08 0,3.24 -2,6.08 -4.96,7.36 z m 9.24,-15.44 h 6 V 40 h -6 z m 9.32,23.88 v -5.64 c 0.48,0.12 1.08,0.24 1.76,0.32 0.68,0.12 1.4,0.2 2.16,0.24 0.76,0.04 1.52,0.08 2.32,0.12 0.8,0.04 1.56,0.08 2.24,0.08 1.88,0 3.2,-0.12 4,-0.32 0.76,-0.2 1.16,-0.56 1.16,-1.12 0,-0.48 -0.36,-0.84 -0.72,-1.12 -1.32,-0.88 -2.88,-1.24 -4.44,-1.6 -4.4,-0.88 -8.44,-2.64 -8.44,-7.68 0,-5.96 5.64,-7.36 10.48,-7.36 2.68,0 5.4,0.28 8,0.92 v 5.64 c -0.4,-0.12 -0.92,-0.2 -1.56,-0.32 -0.68,-0.08 -1.36,-0.16 -2.12,-0.24 -1.56,-0.16 -3.04,-0.24 -4.6,-0.24 -0.88,0 -2.72,0 -3.56,0.32 -0.56,0.2 -0.92,0.44 -0.92,1.08 0,0.32 0.08,0.6 0.24,0.84 0.16,0.28 0.44,0.48 0.8,0.68 1.08,0.6 2.48,0.96 3.68,1.24 1,0.24 2,0.52 3.04,0.8 3.52,0.96 5.84,2.92 5.84,6.68 0,6.2 -6.16,7.52 -11.12,7.52 -2.72,0 -5.56,-0.2 -8.24,-0.84 z M 79.88,15.52 h 20.4 v 5.56 h -7.2 V 40 h -6 V 21.08 h -7.2 z m 38.32,0 h 6 V 40 h -6 v -9.44 h -8.8 V 40 h -6 V 15.52 h 6 V 25 h 8.8 z m 22.32,19.12 c 4.36,0 6.6,-2.8 6.6,-6.88 0,-4.32 -2.4,-6.88 -6.6,-6.88 -4.4,0 -6.6,2.8 -6.6,6.88 0,4.24 2.44,6.88 6.6,6.88 z m 0,5.56 c -7.52,0 -12.6,-5.12 -12.6,-12.44 0,-7.56 5.32,-12.44 12.6,-12.44 7.56,0 12.6,5.08 12.6,12.44 0,7.6 -5.28,12.44 -12.6,12.44 z m 16.32,-24.68 h 18.2 v 5.56 h -12.2 V 25 h 9.8 v 5.56 h -9.8 V 40 h -6 z m 21.6,0 h 18.2 v 5.56 h -12.2 V 25 h 9.8 v 5.56 h -9.8 v 3.88 h 12.2 V 40 h -18.2 z m 27.6,5.64 V 27 h 5.6 c 1.84,0 2.92,-1.08 2.92,-2.92 0,-1.84 -1.08,-2.92 -2.92,-2.92 z m 9.08,9.8 c 1.12,1.52 2.24,3.04 3.4,4.52 1.12,1.48 2.24,3 3.36,4.52 h -7.32 c -1.44,-1.92 -2.84,-3.84 -4.24,-5.76 -1.4,-1.88 -2.84,-3.8 -4.28,-5.72 V 40 h -6 V 15.52 h 11.6 c 4.56,0 8.44,3.48 8.44,8.08 0,3.24 -2,6.08 -4.96,7.36 z"
       id="path4"
       style="fill:#ffffff" />
  </g>
  <g
     id="SvgjsG2885"
     featurekey="nameFeature-1"
     transform="matrix(1.7987751,0,0,1.7987751,88.898793,13.442766)"
     fill="#111111"
     style="fill:#ffffff">
    <path
       d="M 2.28,40 V 15.52 h 11.6 c 4.56,0 8.44,3.44 8.44,8.04 0,4.64 -4,8.04 -8.44,8.04 H 8.28 V 40 Z m 11.6,-18.92 h -5.6 v 4.96 h 5.6 c 1.4,0 2.44,-1.08 2.44,-2.48 0,-1.4 -1.04,-2.48 -2.44,-2.48 z m 11.4,-5.56 h 6 V 40 h -6 z m 26.12,0 h 6 V 40 h -6 L 41.8,25.68 V 40 h -6 V 15.52 h 6 l 9.6,14.32 z m 29.84,17.64 v 6.16 c -2.48,0.68 -4.96,0.96 -7.52,0.96 -7.52,0 -12.56,-5.16 -12.56,-12.48 0,-7.52 5.24,-12.48 12.52,-12.48 2.52,0 5.16,0.2 7.56,0.96 v 6.16 c -1.96,-0.96 -5.04,-1.32 -7.2,-1.32 -4.88,0 -6.88,2 -6.88,6.64 0,4.92 2.36,6.72 6.92,6.72 2.04,0 5.36,-0.32 7.16,-1.32 z m 3.48,-17.64 h 18.2 v 5.56 H 90.72 V 25 h 9.8 v 5.56 h -9.8 v 3.88 h 12.2 V 40 h -18.2 z m 20.16,0 h 20.4 v 5.56 h -7.2 V 40 h -6 V 21.08 h -7.2 z m 22.08,0 h 20.4 v 5.56 h -7.2 V 40 h -6 V 21.08 h -7.2 z m 23.36,0 h 6 V 40 h -6 z"
       id="path5"
       style="fill:#ffffff" />
  </g>
</svg>
