<?xml version="1.0" encoding="UTF-8" standalone="no"?>
<svg
   width="84.524879"
   height="84.524887"
   viewBox="0 0 72.916664 72.916673"
   class="looka-1j8o68f"
   version="1.1"
   id="svg5"
   sodipodi:docname="logo-coffe-black-no-bg.svg"
   xmlns:inkscape="http://www.inkscape.org/namespaces/inkscape"
   xmlns:sodipodi="http://sodipodi.sourceforge.net/DTD/sodipodi-0.dtd"
   xmlns="http://www.w3.org/2000/svg"
   xmlns:svg="http://www.w3.org/2000/svg">
  <sodipodi:namedview
     id="namedview5"
     pagecolor="#ffffff"
     bordercolor="#000000"
     borderopacity="0.25"
     inkscape:showpageshadow="2"
     inkscape:pageopacity="0.0"
     inkscape:pagecheckerboard="0"
     inkscape:deskcolor="#d1d1d1" />
  <defs
     id="SvgjsDefs2882" />
  <g
     id="SvgjsG2883"
     featurekey="symbolFeature-0"
     transform="scale(0.06076389)"
     fill="#111111"
     inkscape:export-filename="icon-coffe-black.svg"
     inkscape:export-xdpi="96"
     inkscape:export-ydpi="96"
     style="fill:#ffffff">
    <g
       id="SvgjsG3238"
       style="fill:#ffffff">
      <path
         class="st0"
         d="M 600,0 C 269.2,0 0,269.2 0,600 c 0,330.8 269.2,600 600,600 330.8,0 600,-269.2 600,-600 C 1200,269.2 930.8,0 600,0 Z m 0,1179 C 280.8,1179 21,919.2 21,600 21,280.8 280.7,21 600,21 c 319.3,0 579,259.7 579,579 0,319.3 -259.7,579 -579,579 z"
         style="fill:#ffffff"
         id="path1" />
      <path
         class="st0"
         d="m 1103.9,767.2 c -4.8,-23.7 -18.9,-44.5 -39.2,-57.7 l -84.1,-55.3 c -7.1,-4.7 -14.9,-8.3 -23,-10.8 C 974.4,596.9 983,547.9 983,498.5 983,261.4 790.1,68.6 553.1,68.6 c -237,0 -429.8,192.8 -429.8,429.9 0,237.1 192.9,429.9 429.9,429.9 117.8,0 230.8,-49 312,-134.8 4.6,4.9 9.7,9.2 15.3,12.9 l 84,55.3 c 42.1,27.7 98.6,16 126.2,-26.1 13.4,-20.2 18.1,-44.9 13.2,-68.5 z m -30.7,57 c -21.3,32.3 -64.8,41.3 -97.1,20 l -84,-55.3 c -7,-4.7 -13.1,-10.6 -18,-17.4 -1.9,-2.6 -4.8,-4.2 -8,-4.3 -2.6,-0.3 -6.2,1.1 -8.4,3.5 C 780,857.5 669,907.4 553.2,907.4 327.8,907.4 144.3,724 144.3,498.5 144.3,273 327.7,89.6 553.2,89.6 c 225.5,0 408.9,183.4 408.9,408.9 -0.1,50.8 -9.6,101.2 -28.3,148.5 -2.1,5.4 0.5,11.5 5.9,13.6 0.7,0.3 1.4,0.5 2.2,0.6 9.7,1.6 18.9,5.1 27.2,10.5 l 84.1,55.3 c 32.3,21.3 41.3,64.8 20,97.2 z"
         style="fill:#ffffff"
         id="path2" />
      <path
         class="st0"
         d="m 553.2,150.1 c -193.6,0 -351.1,157.5 -351.1,351.1 0,193.6 157.5,351.1 351.1,351.1 193.6,0 351.1,-157.5 351.1,-351 0,-193.5 -157.6,-351.2 -351.1,-351.2 z M 367.8,524.2 c 5.1,69.9 45.8,122.3 114.4,147.6 37.9,14 87.5,12.4 121.5,-4.6 27.5,-13.7 45.7,-36.3 52.7,-65.4 8.3,-34.7 -0.9,-75.6 -23.9,-106.7 -17.9,-24.2 -53.1,-41.1 -85.4,-41.1 -34.2,0 -58.8,18.5 -65.7,49.4 -3.8,16.6 0.4,34.4 11.9,50.2 9.7,13.5 23.6,24.3 40.1,31.6 -4.7,0.6 -9.5,1 -14.3,1 -24.1,0 -56,-8.6 -70.5,-49.7 -8.3,-23.5 -2.1,-55.9 15.5,-80.7 31.4,-44.3 89.2,-53.8 153.5,-22.7 34.9,16.8 60.2,47.2 71.3,85.6 11.3,38.7 6.1,79.8 -14.2,112.5 -40.9,65.9 -110.2,75.7 -147.8,75.7 -18.2,0 -36.5,-2.4 -50.2,-6.5 C 398.6,677 344,607.6 337.3,523.5 329.3,422.3 389.8,332.4 484.4,305 c 7.4,-2.2 27.9,-7.1 58.7,-7.1 36.2,0 104.2,7.5 152.5,57.6 25.3,26.2 42.1,60.8 50.2,103.2 -28.4,-60 -84.6,-132.2 -190.8,-132.2 -19.9,0.1 -39.7,2.4 -59.2,6.8 -78.4,17.2 -134.6,101.1 -128,190.9 z"
         style="fill:#ffffff"
         id="path3" />
    </g>
  </g>
</svg>
