<?xml version="1.0" encoding="UTF-8"?>
<!-- Created with Inkscape (http://www.inkscape.org/) -->
<svg width="435mm" height="360mm" version="1.1" viewBox="0 0 435 360" xmlns="http://www.w3.org/2000/svg">
 <path transform="matrix(.99771 0 0 .99771 -12.601 -35.967)" x="78" y="24" width="366" height="389" ry="2.6092501" d="m156.95 150.07 289.8 158.7c1.2457 0.68219 1.8149 1.487 1.2753 1.8041l-146.01 85.833c-0.5606 0.32954-1.9996 0.0139-3.2258-0.70739l-284.87-167.57c-1.0624-0.62497-1.4818-1.3654-0.94087-1.6605l141.08-76.953c0.522-0.28473 1.813-0.037 2.8953 0.55565z" fill="#3b1259" fill-opacity=".79437" stroke-width="6.835"/>
 <g transform="matrix(.99771 0 0 .99771 -98.459 -40.607)">
  <path d="m214.68 280.89 0.025-3.384 5.502 0.041c20.752-11.941 19.183-10.774 39.948-22.708 0.31-0.179 0.778-0.198 1.044-0.042 29.563 17.39 59.102 34.793 88.664 52.185l5.73 0.043-0.026 3.534h-0.01c-0.023 0.098-0.101 0.197-0.237 0.276-22.509 13.026-22.212 13.057-45.063 25.884-0.306 0.172-0.782 0.177-1.063 0.015-31.626-18.395-62.929-36.97-94.314-55.502-0.155-0.093-0.22-0.218-0.2-0.342z" fill="#354854"/>
  <path d="m309.22 333.35c-31.626-18.395-62.929-36.97-94.314-55.502-0.288-0.17-0.275-0.454 0.032-0.632 22.428-13.011 22.71-12.811 45.244-25.761 0.309-0.179 0.778-0.198 1.044-0.043 31.406 18.474 62.782 36.962 94.187 55.437 0.266 0.156 0.235 0.426-0.067 0.602-22.509 13.026-22.212 13.057-45.063 25.883-0.306 0.172-0.782 0.178-1.063 0.016z" fill="#4b6375"/>
  <g fill="#fff">
   <path d="m289.41 280.89c1.67 0.983 2.506 1.473 4.175 2.454 0.159 0.094 0.142 0.251-0.032 0.354-1.862 1.079-2.79 1.617-4.642 2.689-0.175 0.101-0.446 0.108-0.605 0.015-1.666-0.98-2.498-1.471-4.166-2.452-0.158-0.093-0.145-0.251 0.031-0.353 1.85-1.074 2.775-1.612 4.631-2.692 0.178-0.101 0.45-0.107 0.608-0.015z"/>
   <path d="m284.15 277.8c1.673 0.984 2.509 1.476 4.182 2.457 0.158 0.093 0.142 0.251-0.035 0.354-1.856 1.08-2.781 1.619-4.63 2.692-0.177 0.102-0.447 0.108-0.604 0.015-1.668-0.981-2.505-1.471-4.172-2.454-0.16-0.094-0.145-0.253 0.031-0.354 1.846-1.073 2.771-1.614 4.624-2.692 0.174-0.102 0.445-0.111 0.604-0.018z"/>
   <path d="m278.87 274.7c1.676 0.985 2.513 1.478 4.186 2.461 0.159 0.094 0.143 0.252-0.034 0.354-1.853 1.08-2.777 1.62-4.623 2.692-0.176 0.103-0.444 0.11-0.604 0.015-1.671-0.983-2.508-1.475-4.182-2.46-0.158-0.093-0.144-0.252 0.03-0.354 1.844-1.074 2.766-1.613 4.618-2.692 0.177-0.103 0.449-0.11 0.609-0.016z"/>
   <path d="m294.68 283.98c1.669 0.981 2.503 1.472 4.171 2.452 0.158 0.093 0.144 0.252-0.035 0.355-1.863 1.077-2.792 1.614-4.65 2.684-0.177 0.102-0.447 0.109-0.606 0.017-1.664-0.979-2.495-1.471-4.162-2.449-0.159-0.093-0.146-0.251 0.03-0.353 1.855-1.072 2.786-1.609 4.646-2.687 0.176-0.104 0.447-0.112 0.606-0.019z"/>
   <path d="m299.94 287.08c1.668 0.98 2.502 1.472 4.171 2.451 0.158 0.092 0.142 0.251-0.036 0.352-1.866 1.076-2.799 1.614-4.662 2.682-0.177 0.101-0.446 0.107-0.605 0.014-1.664-0.978-2.497-1.467-4.16-2.446-0.158-0.093-0.145-0.251 0.03-0.353 1.859-1.071 2.79-1.608 4.653-2.685 0.18-0.101 0.452-0.108 0.609-0.015z"/>
   <path d="m273.59 271.59c1.677 0.986 2.514 1.481 4.19 2.464 0.161 0.094 0.146 0.252-0.03 0.354-1.85 1.082-2.776 1.619-4.618 2.693-0.174 0.102-0.444 0.108-0.603 0.014-1.674-0.985-2.513-1.481-4.191-2.466-0.16-0.094-0.148-0.253 0.027-0.355 1.842-1.073 2.766-1.614 4.617-2.69 0.174-0.1 0.447-0.108 0.608-0.014z"/>
   <path d="m265.92 287.11c-1.662-0.983-2.498-1.475-4.165-2.46-0.157-0.094-0.142-0.252 0.031-0.353 1.834-1.065 2.752-1.598 4.587-2.665 0.174-0.102 0.444-0.108 0.603-0.014 1.672 0.986 2.506 1.479 4.172 2.461 0.159 0.094 0.145 0.251-0.031 0.352-1.839 1.064-2.759 1.6-4.595 2.665-0.173 0.101-0.444 0.107-0.602 0.014z"/>
   <path d="m257.04 262.24c0.177-0.102 0.451-0.108 0.61-0.015 4.897 2.876 9.791 5.756 14.687 8.629 0.159 0.093 0.144 0.253-0.032 0.355-1.85 1.076-2.772 1.621-4.615 2.691-0.176 0.102-0.447 0.108-0.607 0.015-4.898-2.883-9.798-5.773-14.699-8.649-0.161-0.095-0.15-0.252 0.026-0.354 1.848-1.065 2.774-1.6 4.63-2.672z"/>
   <path d="m260.66 284.01c-1.669-0.986-2.511-1.48-4.182-2.47-0.161-0.095-0.145-0.253 0.03-0.354 1.831-1.064 2.748-1.597 4.58-2.663 0.174-0.101 0.444-0.107 0.603-0.013 1.678 0.989 2.515 1.483 4.188 2.468 0.16 0.094 0.145 0.253-0.03 0.354-1.834 1.067-2.754 1.599-4.586 2.664-0.175 0.102-0.444 0.107-0.603 0.014z"/>
   <path d="m255.3 280.87c-1.669-0.986-2.511-1.48-4.182-2.47-0.161-0.095-0.145-0.253 0.029-0.353 1.831-1.064 2.748-1.597 4.58-2.663 0.174-0.101 0.444-0.107 0.603-0.013 1.678 0.989 2.515 1.483 4.188 2.469 0.159 0.094 0.145 0.253-0.03 0.353-1.834 1.067-2.754 1.599-4.586 2.664-0.174 0.101-0.443 0.107-0.602 0.013z"/>
   <path d="m249.93 277.72c-1.67-0.986-2.511-1.48-4.182-2.47-0.161-0.095-0.145-0.253 0.029-0.354 1.831-1.064 2.748-1.597 4.58-2.663 0.174-0.101 0.444-0.107 0.603-0.013 1.678 0.989 2.515 1.483 4.188 2.469 0.16 0.094 0.145 0.252-0.03 0.353-1.834 1.067-2.754 1.599-4.586 2.664-0.174 0.102-0.443 0.108-0.602 0.014z"/>
   <path d="m244.57 274.58c-1.669-0.986-2.511-1.48-4.182-2.47-0.161-0.095-0.145-0.253 0.029-0.354 1.831-1.064 2.748-1.597 4.58-2.663 0.174-0.101 0.444-0.107 0.604-0.013 1.677 0.989 2.515 1.483 4.188 2.469 0.16 0.094 0.145 0.252-0.03 0.354-1.834 1.067-2.754 1.599-4.586 2.664-0.174 0.101-0.443 0.107-0.603 0.013z"/>
   <path d="m331.53 305.62c1.677 0.983 2.518 1.475 4.198 2.459 0.161 0.094 0.144 0.251-0.035 0.353-1.88 1.071-2.819 1.607-4.694 2.672-0.179 0.102-0.451 0.108-0.611 0.015-1.681-0.982-2.519-1.479-4.197-2.46-0.158-0.093-0.145-0.251 0.033-0.353 1.874-1.062 2.815-1.6 4.695-2.671 0.178-0.101 0.453-0.107 0.611-0.015z"/>
   <path d="m313.61 314.86c-0.178 0.1-0.452 0.107-0.613 0.013-1.67-0.984-2.51-1.479-4.18-2.457-0.16-0.093-0.141-0.25 0.036-0.35 1.872-1.058 2.809-1.587 4.68-2.646 0.178-0.1 0.451-0.107 0.609-0.013 1.671 0.981 2.508 1.473 4.184 2.456 0.158 0.093 0.144 0.25-0.033 0.35-1.874 1.06-2.811 1.591-4.683 2.647z"/>
   <path d="m322.02 312.82c-0.178 0.101-0.453 0.106-0.613 0.013-1.678-0.985-2.517-1.479-4.189-2.46-0.158-0.093-0.142-0.25 0.035-0.351 1.874-1.06 2.81-1.592 4.684-2.656 0.178-0.101 0.451-0.108 0.61-0.015 1.676 0.983 2.516 1.474 4.191 2.458 0.159 0.093 0.145 0.252-0.032 0.353-1.876 1.065-2.814 1.596-4.686 2.658z"/>
   <path d="m304.64 316.56c-0.179 0.1-0.452 0.105-0.61 0.013-1.671-0.983-2.509-1.474-4.167-2.452-0.157-0.093-0.143-0.251 0.036-0.35 1.874-1.057 2.812-1.585 4.684-2.641 0.177-0.1 0.448-0.107 0.606-0.013 1.666 0.981 2.502 1.469 4.172 2.453 0.159 0.093 0.143 0.25-0.036 0.349-1.872 1.057-2.811 1.585-4.685 2.641z"/>
   <path d="m298.78 313.48c-1.663-0.979-2.493-1.469-4.15-2.446-0.156-0.093-0.138-0.249 0.04-0.349 1.871-1.057 2.804-1.584 4.674-2.642 0.176-0.101 0.449-0.107 0.606-0.015 1.66 0.977 2.491 1.47 4.157 2.448 0.158 0.093 0.143 0.249-0.034 0.35-1.872 1.056-2.811 1.585-4.685 2.64-0.179 0.101-0.451 0.107-0.608 0.014z"/>
   <path d="m305.19 290.17c1.668 0.98 2.504 1.47 4.172 2.45 0.159 0.093 0.142 0.251-0.035 0.353-1.871 1.074-2.808 1.611-4.674 2.678-0.176 0.102-0.447 0.108-0.606 0.015-1.665-0.974-2.497-1.468-4.162-2.446-0.157-0.093-0.143-0.251 0.035-0.352 1.862-1.071 2.797-1.607 4.662-2.681 0.176-0.103 0.45-0.111 0.608-0.017z"/>
   <path d="m315.71 296.34c1.669 0.979 2.503 1.471 4.176 2.451 0.158 0.093 0.141 0.25-0.037 0.352-1.878 1.072-2.815 1.608-4.688 2.672-0.178 0.101-0.448 0.108-0.607 0.015-1.669-0.98-2.505-1.47-4.17-2.449-0.159-0.093-0.145-0.252 0.033-0.352 1.87-1.067 2.812-1.603 4.682-2.674 0.178-0.103 0.451-0.11 0.611-0.015z"/>
   <path d="m310.45 293.25c1.669 0.981 2.503 1.47 4.174 2.45 0.158 0.093 0.141 0.25-0.037 0.353-1.874 1.073-2.812 1.607-4.68 2.674-0.177 0.101-0.448 0.109-0.606 0.016-1.668-0.98-2.501-1.469-4.166-2.448-0.157-0.093-0.143-0.251 0.034-0.352 1.867-1.068 2.807-1.603 4.674-2.678 0.177-0.1 0.448-0.108 0.607-0.015z"/>
   <path d="m326.25 302.53c1.674 0.981 2.512 1.472 4.188 2.454 0.161 0.094 0.145 0.252-0.035 0.353-1.88 1.071-2.82 1.606-4.695 2.671-0.178 0.101-0.452 0.108-0.611 0.014-1.677-0.983-2.513-1.475-4.187-2.455-0.159-0.093-0.142-0.251 0.035-0.352 1.874-1.066 2.814-1.6 4.694-2.671 0.179-0.101 0.453-0.108 0.611-0.014z"/>
   <path d="m320.98 299.43c1.672 0.981 2.508 1.474 4.18 2.452 0.159 0.094 0.144 0.252-0.034 0.354-1.881 1.071-2.822 1.605-4.694 2.671-0.177 0.101-0.451 0.107-0.609 0.014-1.672-0.981-2.509-1.474-4.178-2.452-0.16-0.093-0.145-0.251 0.033-0.351 1.875-1.066 2.816-1.6 4.69-2.672 0.179-0.101 0.453-0.109 0.612-0.016z"/>
   <path d="m264.7 273.34c1.681 0.99 2.522 1.483 4.197 2.47 0.159 0.094 0.147 0.253-0.028 0.354-1.836 1.071-2.759 1.606-4.594 2.673-0.174 0.101-0.445 0.107-0.605 0.014-1.674-0.988-2.513-1.482-4.195-2.473-0.16-0.094-0.149-0.253 0.024-0.354 1.835-1.067 2.753-1.601 4.595-2.671 0.174-0.102 0.447-0.107 0.606-0.013z"/>
   <path d="m280.53 282.66c1.666 0.981 2.502 1.472 4.167 2.453 0.158 0.093 0.144 0.251-0.031 0.352-1.85 1.071-2.773 1.606-4.619 2.674-0.176 0.101-0.446 0.108-0.603 0.014-1.662-0.98-2.495-1.471-4.16-2.451-0.158-0.093-0.142-0.251 0.032-0.352 1.84-1.068 2.766-1.602 4.608-2.674 0.176-0.103 0.446-0.109 0.606-0.016z"/>
   <path d="m285.78 285.75c1.667 0.981 2.501 1.471 4.164 2.451 0.158 0.092 0.142 0.251-0.033 0.352-1.852 1.07-2.779 1.605-4.63 2.669-0.176 0.101-0.445 0.109-0.603 0.016-1.662-0.979-2.496-1.469-4.154-2.449-0.157-0.093-0.142-0.25 0.032-0.351 1.847-1.067 2.77-1.601 4.619-2.672 0.176-0.102 0.447-0.108 0.605-0.016z"/>
   <path d="m275.27 279.56c1.672 0.984 2.511 1.476 4.176 2.457 0.159 0.093 0.145 0.251-0.031 0.353-1.846 1.072-2.768 1.607-4.608 2.674-0.176 0.101-0.445 0.108-0.603 0.014-1.666-0.982-2.501-1.474-4.17-2.458-0.158-0.093-0.145-0.251 0.029-0.352 1.839-1.068 2.76-1.604 4.602-2.676 0.177-0.099 0.447-0.105 0.605-0.012z"/>
   <path d="m291.03 288.84c1.664 0.98 2.495 1.47 4.16 2.449 0.156 0.092 0.142 0.25-0.033 0.352-1.859 1.069-2.785 1.602-4.64 2.667-0.177 0.101-0.447 0.106-0.605 0.014-1.66-0.978-2.489-1.469-4.15-2.445-0.158-0.093-0.142-0.25 0.033-0.351 1.85-1.066 2.778-1.6 4.63-2.67 0.176-0.102 0.447-0.109 0.605-0.016z"/>
   <path d="m296.28 291.92c1.664 0.979 2.498 1.469 4.159 2.447 0.158 0.093 0.144 0.249-0.033 0.352-1.864 1.067-2.793 1.6-4.652 2.664-0.175 0.102-0.449 0.107-0.607 0.015-1.66-0.977-2.487-1.467-4.148-2.443-0.157-0.093-0.142-0.251 0.033-0.352 1.855-1.065 2.787-1.598 4.641-2.667 0.178-0.101 0.451-0.108 0.607-0.016z"/>
   <path d="m269.99 276.45c1.676 0.986 2.513 1.481 4.185 2.463 0.158 0.093 0.145 0.252-0.028 0.354-1.843 1.072-2.761 1.608-4.6 2.676-0.175 0.1-0.446 0.107-0.604 0.013-1.672-0.984-2.506-1.478-4.183-2.465-0.16-0.093-0.144-0.251 0.029-0.353 1.832-1.067 2.758-1.602 4.595-2.673 0.177-0.102 0.449-0.108 0.606-0.015z"/>
   <path d="m238.66 272.21c-1.836 1.055-2.754 1.583-4.59 2.641-0.173 0.099-0.448 0.103-0.611 7e-3 -1.714-1.013-2.573-1.523-4.299-2.541-0.163-0.097-0.158-0.256 0.016-0.357 1.835-1.052 2.764-1.581 4.604-2.629 0.174-0.099 0.449-0.102 0.613-5e-3 1.72 1.014 2.578 1.52 4.287 2.529 0.162 0.096 0.155 0.255-0.02 0.355z"/>
   <path d="m293.55 310.4c-1.657-0.977-2.487-1.464-4.138-2.44-0.157-0.093-0.138-0.25 0.039-0.35 1.866-1.054 2.8-1.588 4.664-2.645 0.177-0.1 0.449-0.107 0.605-0.014 1.657 0.977 2.486 1.467 4.146 2.443 0.158 0.093 0.144 0.249-0.035 0.349-1.868 1.058-2.806 1.586-4.674 2.642-0.178 0.102-0.449 0.108-0.607 0.015z"/>
   <path d="m271.15 290.21c-1.659-0.98-2.494-1.471-4.155-2.453-0.157-0.093-0.142-0.252 0.032-0.352 1.836-1.065 2.758-1.6 4.596-2.664 0.174-0.1 0.442-0.108 0.603-0.014 1.665 0.983 2.499 1.475 4.162 2.455 0.158 0.093 0.144 0.25-0.03 0.352-1.845 1.066-2.765 1.598-4.607 2.662-0.175 0.099-0.443 0.106-0.601 0.014z"/>
   <path d="m258.38 275.73c-1.682-0.991-2.523-1.488-4.212-2.482-0.16-0.094-0.148-0.253 0.025-0.353 1.834-1.065 2.754-1.602 4.596-2.666 0.173-0.101 0.445-0.106 0.605-0.012 1.688 0.992 2.53 1.49 4.213 2.478 0.16 0.094 0.148 0.253-0.027 0.355-1.841 1.07-2.761 1.604-4.596 2.669-0.172 0.1-0.444 0.105-0.604 0.011z"/>
   <path d="m252.8 272.39c-1.682-0.991-2.523-1.488-4.212-2.482-0.16-0.094-0.148-0.253 0.025-0.353 1.834-1.065 2.754-1.602 4.596-2.666 0.174-0.101 0.445-0.106 0.605-0.012 1.688 0.992 2.53 1.49 4.213 2.478 0.16 0.094 0.148 0.253-0.027 0.355-1.841 1.07-2.761 1.604-4.596 2.669-0.172 0.1-0.443 0.105-0.604 0.011z"/>
   <path d="m301.52 295.01c1.664 0.979 2.499 1.468 4.163 2.447 0.158 0.092 0.142 0.251-0.033 0.353-1.867 1.066-2.799 1.599-4.664 2.661-0.176 0.099-0.45 0.106-0.607 0.013-1.662-0.978-2.491-1.467-4.152-2.444-0.157-0.093-0.142-0.25 0.035-0.35 1.86-1.063 2.792-1.596 4.654-2.664 0.175-0.101 0.446-0.108 0.604-0.016z"/>
   <path d="m292.02 302.53c-1.65-0.976-2.491-1.465-4.139-2.441-0.155-0.093-0.14-0.249 0.036-0.35 1.858-1.061 2.785-1.593 4.644-2.655 0.175-0.102 0.445-0.108 0.604-0.015 1.66 0.977 2.491 1.468 4.151 2.444 0.157 0.093 0.141 0.25-0.037 0.35-1.861 1.062-2.792 1.593-4.654 2.652-0.176 0.101-0.448 0.107-0.605 0.015z"/>
   <path d="m286.81 299.45c-1.649-0.976-2.479-1.469-4.135-2.441-0.157-0.092-0.141-0.25 0.034-0.35 1.851-1.062 2.779-1.595 4.631-2.658 0.176-0.101 0.445-0.108 0.603-0.015 1.659 0.978 2.489 1.467 4.148 2.443 0.158 0.093 0.143 0.251-0.033 0.352-1.856 1.063-2.786 1.594-4.642 2.654-0.176 0.102-0.449 0.108-0.606 0.015z"/>
   <path d="m276.38 293.29c-1.657-0.979-2.485-1.47-4.143-2.448-0.157-0.092-0.141-0.25 0.033-0.35 1.84-1.064 2.761-1.598 4.604-2.664 0.175-0.102 0.444-0.107 0.603-0.014 1.662 0.981 2.493 1.471 4.155 2.45 0.158 0.092 0.141 0.25-0.033 0.351-1.847 1.066-2.773 1.598-4.615 2.661-0.175 0.101-0.446 0.107-0.604 0.014z"/>
   <path d="m306.77 298.09c1.666 0.979 2.501 1.469 4.166 2.448 0.159 0.093 0.144 0.25-0.035 0.351-1.87 1.065-2.807 1.597-4.672 2.658-0.177 0.101-0.449 0.107-0.607 0.014-1.665-0.978-2.495-1.467-4.158-2.444-0.159-0.093-0.142-0.25 0.034-0.351 1.865-1.062 2.8-1.594 4.665-2.661 0.177-0.102 0.449-0.108 0.607-0.015z"/>
   <path d="m281.59 296.37c-1.655-0.977-2.482-1.466-4.138-2.443-0.158-0.093-0.142-0.25 0.033-0.351 1.846-1.064 2.77-1.596 4.618-2.661 0.176-0.101 0.445-0.108 0.602-0.015 1.661 0.979 2.491 1.468 4.15 2.446 0.157 0.092 0.142 0.25-0.033 0.352-1.852 1.063-2.777 1.595-4.63 2.658-0.175 0.1-0.445 0.106-0.602 0.014z"/>
   <path d="m297.24 305.6c-1.658-0.978-2.49-1.465-4.143-2.441-0.157-0.093-0.141-0.25 0.036-0.35 1.864-1.06 2.797-1.59 4.655-2.651 0.177-0.102 0.448-0.107 0.604-0.015 1.658 0.977 2.492 1.467 4.155 2.444 0.157 0.093 0.141 0.249-0.036 0.35-1.866 1.062-2.799 1.591-4.664 2.65-0.175 0.1-0.449 0.106-0.607 0.013z"/>
   <path d="m302.48 308.68c-1.662-0.979-2.498-1.468-4.154-2.446-0.157-0.093-0.138-0.249 0.039-0.349 1.866-1.058 2.798-1.589 4.664-2.649 0.177-0.1 0.449-0.107 0.607-0.014 1.662 0.979 2.495 1.468 4.161 2.448 0.157 0.092 0.142 0.249-0.037 0.349-1.868 1.061-2.801 1.591-4.672 2.648-0.178 0.1-0.45 0.106-0.608 0.013z"/>
   <path d="m312.02 301.18c1.666 0.979 2.502 1.472 4.172 2.45 0.158 0.093 0.144 0.251-0.034 0.352-1.874 1.064-2.809 1.596-4.68 2.656-0.177 0.101-0.452 0.107-0.61 0.014-1.668-0.981-2.501-1.472-4.167-2.449-0.158-0.092-0.14-0.25 0.037-0.351 1.868-1.06 2.803-1.594 4.672-2.658 0.179-0.099 0.452-0.106 0.61-0.014z"/>
   <path d="m317.28 304.26c1.671 0.981 2.51 1.473 4.182 2.454 0.16 0.094 0.144 0.252-0.033 0.353-1.876 1.064-2.815 1.594-4.687 2.655-0.177 0.1-0.449 0.107-0.608 0.013-1.674-0.982-2.51-1.473-4.178-2.453-0.157-0.093-0.141-0.25 0.037-0.351 1.868-1.061 2.808-1.593 4.68-2.656 0.176-0.099 0.45-0.107 0.607-0.015z"/>
   <path d="m308.34 311.76c-0.177 0.1-0.452 0.105-0.61 0.013-1.669-0.981-2.501-1.472-4.166-2.451-0.158-0.092-0.141-0.251 0.036-0.35 1.87-1.057 2.805-1.586 4.675-2.646 0.178-0.1 0.448-0.108 0.607-0.014 1.668 0.981 2.502 1.471 4.172 2.451 0.158 0.093 0.144 0.25-0.036 0.35-1.873 1.059-2.81 1.589-4.678 2.647z"/>
   <path d="m300.17 286c-0.177 0.102-0.449 0.111-0.607 0.018-1.668-0.98-2.503-1.474-4.173-2.453-0.158-0.093-0.144-0.251 0.032-0.354 1.863-1.08 2.797-1.624 4.665-2.713 0.178-0.104 0.453-0.111 0.611-0.018 1.673 0.983 2.513 1.474 4.183 2.457 0.158 0.093 0.141 0.253-0.037 0.356-1.873 1.087-2.808 1.629-4.674 2.707z"/>
   <path d="m305.23 316.9c1.876-1.057 2.814-1.584 4.688-2.64 0.177-0.101 0.451-0.106 0.609-0.013 4.118 2.419 8.237 4.839 12.359 7.252 0.161 0.093 0.149 0.251-0.029 0.352-1.872 1.06-2.81 1.59-4.682 2.65-0.177 0.101-0.452 0.105-0.613 0.011-4.126-2.41-8.249-4.838-12.367-7.26-0.158-0.093-0.144-0.251 0.035-0.352z"/>
   <path d="m331.51 311.41c1.876-1.067 2.816-1.601 4.694-2.673 0.178-0.102 0.452-0.108 0.612-0.014 1.681 0.984 2.523 1.476 4.207 2.462 0.159 0.093 0.143 0.252-0.035 0.353-1.876 1.072-2.814 1.608-4.687 2.676-0.178 0.101-0.451 0.108-0.611 0.015-1.688-0.987-2.531-1.481-4.212-2.466-0.161-0.095-0.145-0.252 0.032-0.353z"/>
   <path d="m337.58 307.95c1.881-1.074 2.823-1.613 4.71-2.691 0.179-0.102 0.455-0.109 0.614-0.016l4.2 2.46c0.16 0.093 0.143 0.251-0.035 0.354-1.884 1.079-2.825 1.619-4.703 2.693-0.178 0.101-0.453 0.109-0.613 0.016-1.684-0.986-2.526-1.479-4.207-2.463-0.159-0.092-0.143-0.251 0.034-0.353z"/>
   <path d="m314.2 315.2c1.874-1.055 2.811-1.587 4.684-2.647 0.177-0.101 0.452-0.105 0.61-0.013 3.145 1.845 6.293 3.689 9.442 5.532 0.158 0.094 0.146 0.251-0.032 0.352-1.871 1.064-2.809 1.594-4.676 2.656-0.175 0.099-0.454 0.105-0.615 0.011-3.15-1.846-6.317-3.691-9.448-5.54-0.158-0.094-0.142-0.251 0.035-0.351z"/>
   <path d="m322.57 313.15c1.87-1.062 2.811-1.594 4.686-2.658 0.177-0.101 0.452-0.107 0.61-0.014 2.369 1.387 4.738 2.774 7.105 4.161 0.159 0.093 0.146 0.252-0.03 0.353-1.873 1.067-2.813 1.601-4.68 2.663-0.178 0.101-0.453 0.107-0.613 0.013-2.373-1.388-4.743-2.779-7.112-4.168-0.159-0.093-0.145-0.249 0.034-0.35z"/>
   <path d="m337.06 307.65c-0.179 0.102-0.453 0.109-0.614 0.016-1.68-0.984-2.519-1.475-4.198-2.459-0.158-0.093-0.141-0.252 0.037-0.353 1.88-1.073 2.823-1.612 4.711-2.69 0.178-0.102 0.452-0.11 0.612-0.016 1.677 0.983 2.516 1.476 4.195 2.459 0.158 0.093 0.142 0.252-0.036 0.354-1.886 1.079-2.826 1.617-4.707 2.689z"/>
   <path d="m331.77 304.55c-0.178 0.101-0.451 0.109-0.612 0.016-1.675-0.982-2.515-1.474-4.19-2.455-0.158-0.093-0.142-0.252 0.037-0.354 1.881-1.073 2.823-1.612 4.712-2.691 0.177-0.102 0.451-0.11 0.61-0.017 1.677 0.983 2.516 1.476 4.191 2.458 0.159 0.093 0.144 0.252-0.036 0.353-1.888 1.079-2.831 1.617-4.712 2.69z"/>
   <path d="m315.96 295.28c-0.178 0.101-0.451 0.109-0.61 0.016-1.67-0.981-2.503-1.472-4.174-2.452-0.158-0.092-0.143-0.251 0.035-0.353 1.874-1.076 2.815-1.616 4.694-2.699 0.18-0.102 0.452-0.111 0.611-0.018 1.672 0.982 2.509 1.473 4.182 2.455 0.159 0.094 0.141 0.253-0.038 0.355-1.882 1.081-2.825 1.621-4.7 2.696z"/>
   <path d="m321.22 298.37c-0.177 0.102-0.448 0.11-0.608 0.016-1.672-0.981-2.507-1.471-4.177-2.451-0.158-0.093-0.144-0.252 0.035-0.354 1.875-1.076 2.816-1.615 4.7-2.697 0.179-0.101 0.454-0.109 0.613-0.016 1.672 0.982 2.51 1.473 4.182 2.455 0.159 0.093 0.142 0.252-0.037 0.355-1.885 1.08-2.827 1.618-4.708 2.692z"/>
   <path d="m326.49 301.46c-0.179 0.102-0.451 0.11-0.609 0.016-1.674-0.98-2.514-1.473-4.186-2.453-0.159-0.093-0.142-0.251 0.036-0.354 1.88-1.074 2.821-1.615 4.707-2.693 0.178-0.103 0.453-0.11 0.613-0.017 1.674 0.982 2.511 1.473 4.187 2.456 0.158 0.092 0.14 0.251-0.038 0.353-1.887 1.082-2.831 1.62-4.71 2.692z"/>
   <path d="m254.55 288.53c0.175-0.101 0.443-0.107 0.602-0.013 16.97 10.048 33.943 20.109 50.972 30.109 0.159 0.094 0.143 0.25-0.035 0.35-1.879 1.056-2.819 1.584-4.703 2.641-0.178 0.1-0.452 0.106-0.612 0.012-16.992-10.001-33.918-20.058-50.85-30.077-0.157-0.093-0.144-0.251 0.031-0.352 1.839-1.07 2.759-1.604 4.595-2.67z"/>
   <path d="m227.83 272.74c0.173-0.1 0.446-0.104 0.611-7e-3 1.727 1.021 2.595 1.529 4.305 2.544 0.162 0.096 0.153 0.257-0.021 0.356-1.838 1.058-2.758 1.586-4.597 2.649-0.173 0.101-0.447 0.105-0.611 8e-3 -1.718-1.018-2.583-1.529-4.314-2.555-0.166-0.097-0.157-0.257 0.02-0.358 1.842-1.052 2.768-1.584 4.607-2.637z"/>
   <path d="m233.25 275.94c0.174-0.101 0.448-0.104 0.609-8e-3 1.712 1.012 2.565 1.516 4.264 2.521 0.162 0.096 0.15 0.255-0.023 0.357-1.832 1.062-2.752 1.593-4.587 2.658-0.173 0.102-0.447 0.106-0.609 0.01-1.698-1.009-2.558-1.514-4.272-2.53-0.162-0.097-0.153-0.257 0.023-0.358 1.839-1.064 2.761-1.592 4.595-2.65z"/>
   <path d="m238.62 279.12c0.173-0.101 0.444-0.106 0.605-0.01 1.692 1.004 2.542 1.506 4.229 2.503 0.161 0.094 0.15 0.253-0.023 0.354-1.832 1.064-2.751 1.596-4.586 2.663-0.174 0.102-0.445 0.107-0.606 0.012-1.686-1-2.531-1.504-4.23-2.508-0.161-0.095-0.153-0.255 0.021-0.355 1.832-1.066 2.757-1.598 4.59-2.659z"/>
   <path d="m312 322.45c0.178-0.099 0.454-0.105 0.614-0.011 1.688 0.991 2.533 1.49 4.231 2.482 0.161 0.094 0.148 0.253-0.029 0.353-1.875 1.059-2.815 1.589-4.694 2.647-0.18 0.101-0.456 0.106-0.617 0.011-1.698-0.998-2.547-1.496-4.239-2.487-0.159-0.093-0.145-0.252 0.034-0.352 1.882-1.057 2.825-1.585 4.7-2.643z"/>
   <path d="m243.96 282.27c0.172-0.101 0.445-0.105 0.604-0.012 1.686 0.997 2.527 1.495 4.2 2.487 0.161 0.095 0.148 0.252-0.027 0.353-1.832 1.066-2.751 1.603-4.585 2.668-0.176 0.101-0.445 0.107-0.605 0.012-1.673-0.992-2.515-1.49-4.198-2.489-0.159-0.094-0.148-0.253 0.026-0.355 1.834-1.068 2.752-1.603 4.585-2.664z"/>
   <path d="m306.7 319.34c0.177-0.1 0.453-0.106 0.611-0.013 1.678 0.987 2.517 1.484 4.203 2.47 0.16 0.093 0.145 0.25-0.032 0.351-1.878 1.057-2.82 1.587-4.703 2.643-0.178 0.1-0.45 0.105-0.61 0.011-1.688-0.991-2.531-1.484-4.204-2.47-0.16-0.094-0.143-0.252 0.035-0.352 1.883-1.057 2.824-1.583 4.7-2.64z"/>
   <path d="m310.69 292.19c-0.178 0.103-0.449 0.11-0.608 0.017-1.67-0.981-2.505-1.472-4.174-2.452-0.158-0.093-0.141-0.251 0.035-0.354 1.871-1.078 2.808-1.619 4.685-2.703 0.18-0.103 0.452-0.113 0.612-0.019 1.672 0.982 2.51 1.473 4.182 2.454 0.158 0.093 0.14 0.253-0.038 0.356-1.882 1.084-2.823 1.625-4.694 2.701z"/>
   <path d="m249.26 285.4c0.173-0.101 0.444-0.106 0.603-0.011 1.667 0.989 2.508 1.485 4.176 2.47 0.158 0.094 0.145 0.252-0.03 0.354-1.836 1.065-2.757 1.599-4.596 2.668-0.173 0.102-0.441 0.108-0.598 0.014-1.663-0.987-2.503-1.481-4.171-2.473-0.158-0.094-0.146-0.254 0.029-0.356 1.837-1.068 2.755-1.606 4.587-2.666z"/>
   <path d="m251.64 285.61c-3.852-2.27-7.7-4.565-11.551-6.836-0.16-0.095-0.15-0.255 0.022-0.355 1.826-1.061 2.748-1.591 4.58-2.652 0.174-0.1 0.445-0.105 0.608-9e-3 3.85 2.274 7.709 4.548 11.551 6.824 0.159 0.094 0.148 0.251-0.026 0.352-1.834 1.065-2.748 1.598-4.581 2.662-0.175 0.102-0.444 0.108-0.603 0.014z"/>
   <path d="m262.33 291.94c-1.658-0.981-2.494-1.472-4.152-2.456-0.156-0.093-0.144-0.252 0.031-0.353 1.838-1.066 2.756-1.599 4.59-2.662 0.173-0.101 0.443-0.107 0.603-0.014 1.664 0.984 2.495 1.475 4.158 2.457 0.158 0.093 0.142 0.251-0.031 0.352-1.839 1.065-2.759 1.6-4.6 2.661-0.174 0.101-0.442 0.108-0.599 0.015z"/>
   <path d="m288.34 307.32c-1.654-0.972-2.479-1.463-4.131-2.438-0.156-0.092-0.14-0.249 0.037-0.349 1.86-1.06 2.793-1.589 4.652-2.649 0.176-0.1 0.447-0.106 0.603-0.014 1.655 0.976 2.485 1.463 4.139 2.439 0.158 0.093 0.142 0.25-0.035 0.35-1.864 1.059-2.799 1.587-4.664 2.646-0.176 0.1-0.445 0.106-0.601 0.015z"/>
   <path d="m257.09 288.84c-1.665-0.986-2.497-1.48-4.167-2.469-0.158-0.093-0.148-0.251 0.027-0.351 1.834-1.066 2.751-1.599 4.583-2.663 0.173-0.101 0.445-0.106 0.602-0.013 1.671 0.984 2.513 1.482 4.175 2.466 0.158 0.094 0.145 0.252-0.029 0.353-1.834 1.065-2.752 1.598-4.588 2.662-0.175 0.101-0.445 0.109-0.603 0.015z"/>
   <path d="m244.59 268.8c-1.84 1.057-2.76 1.586-4.594 2.641-0.176 0.1-0.448 0.103-0.611 7e-3 -1.708-1.008-2.568-1.513-4.288-2.528-0.162-0.096-0.153-0.255 0.021-0.355 1.842-1.051 2.766-1.577 4.607-2.63 0.174-0.1 0.449-0.102 0.611-7e-3 1.715 1.009 2.571 1.514 4.275 2.516 0.164 0.095 0.153 0.255-0.021 0.356z"/>
   <path d="m252.44 266.53c-1.846 1.058-2.769 1.594-4.607 2.652-0.176 0.101-0.448 0.104-0.612 0.01-1.703-1.004-4.453-2.656-6.164-3.663-0.163-0.095-0.153-0.254 0.021-0.354 1.848-1.053 2.774-1.581 4.622-2.64 0.175-0.101 0.451-0.105 0.614-0.01 1.707 1.003 4.451 2.654 6.15 3.651 0.161 0.094 0.149 0.254-0.024 0.354z"/>
   <path d="m238.82 278.05c-1.7-1.002-2.555-1.509-4.263-2.521-0.162-0.095-0.153-0.254 0.021-0.355 1.835-1.057 2.752-1.585 4.586-2.641 0.174-0.1 0.449-0.104 0.61-9e-3 1.705 1.007 2.56 1.509 4.257 2.512 0.161 0.095 0.15 0.254-0.023 0.354-1.833 1.059-2.748 1.589-4.579 2.651-0.175 0.101-0.448 0.105-0.609 9e-3z"/>
   <path d="m283.14 304.25c-1.65-0.975-2.475-1.462-4.124-2.436-0.155-0.092-0.141-0.25 0.037-0.349 1.856-1.062 2.784-1.592 4.639-2.652 0.177-0.101 0.445-0.108 0.602-0.016 1.654 0.971 2.483 1.464 4.135 2.44 0.157 0.093 0.141 0.248-0.035 0.349-1.86 1.06-2.789 1.591-4.649 2.65-0.178 0.1-0.448 0.107-0.605 0.014z"/>
   <path d="m305.43 289.1c-0.178 0.103-0.451 0.111-0.608 0.018-1.67-0.98-2.504-1.472-4.173-2.451-0.158-0.093-0.144-0.253 0.033-0.355 1.867-1.08 2.803-1.622 4.676-2.708 0.178-0.103 0.453-0.111 0.611-0.018 1.672 0.982 2.507 1.472 4.178 2.454 0.158 0.093 0.142 0.253-0.036 0.356-1.877 1.082-2.813 1.627-4.681 2.704z"/>
   <path d="m267.54 295.02c-1.654-0.975-2.482-1.468-4.136-2.448-0.157-0.092-0.142-0.251 0.032-0.352 1.842-1.065 2.765-1.596 4.601-2.661 0.174-0.101 0.443-0.107 0.601-0.015 1.66 0.981 2.489 1.472 4.148 2.449 0.158 0.094 0.141 0.251-0.032 0.353-1.844 1.063-2.767 1.595-4.611 2.658-0.176 0.102-0.447 0.108-0.603 0.016z"/>
   <path d="m272.74 298.1c-1.645-0.976-2.475-1.468-4.128-2.443-0.157-0.093-0.144-0.25 0.032-0.351 1.844-1.064 2.769-1.596 4.614-2.659 0.174-0.101 0.445-0.107 0.601-0.014 1.655 0.978 2.487 1.467 4.138 2.444 0.155 0.092 0.142 0.25-0.032 0.351-1.848 1.062-2.773 1.598-4.624 2.656-0.176 0.101-0.446 0.108-0.601 0.016z"/>
   <path d="m277.94 301.18c-1.642-0.975-2.474-1.462-4.123-2.438-0.158-0.094-0.141-0.249 0.035-0.351 1.851-1.062 2.775-1.593 4.627-2.655 0.173-0.101 0.441-0.109 0.598-0.016 1.655 0.978 2.482 1.467 4.136 2.442 0.157 0.093 0.142 0.25-0.033 0.351-1.854 1.061-2.783 1.591-4.64 2.652-0.176 0.102-0.444 0.108-0.6 0.015z"/>
   <path d="m289.65 279.82c-0.174 0.103-0.448 0.11-0.606 0.018-1.672-0.982-2.509-1.474-4.18-2.457-0.158-0.093-0.145-0.254 0.031-0.356 1.858-1.082 2.788-1.627 4.654-2.718 0.177-0.104 0.448-0.113 0.607-0.02 1.674 0.984 2.514 1.478 4.188 2.46 0.16 0.094 0.141 0.253-0.036 0.357-1.867 1.091-2.797 1.634-4.658 2.716z"/>
   <path d="m284.38 276.72c-0.175 0.102-0.445 0.11-0.604 0.017-1.674-0.983-2.512-1.478-4.188-2.461-0.16-0.094-0.146-0.253 0.031-0.356 1.855-1.083 2.784-1.626 4.65-2.717 0.177-0.104 0.448-0.113 0.607-0.02 1.677 0.986 2.518 1.479 4.192 2.463 0.159 0.093 0.144 0.252-0.036 0.355-1.865 1.091-2.794 1.637-4.652 2.719z"/>
   <path d="m294.91 282.91c-0.177 0.103-0.447 0.111-0.606 0.017-1.669-0.981-2.503-1.472-4.176-2.454-0.157-0.093-0.144-0.253 0.032-0.356 1.859-1.082 2.791-1.625 4.658-2.715 0.178-0.103 0.452-0.112 0.609-0.018 1.673 0.983 2.513 1.475 4.184 2.457 0.158 0.094 0.144 0.254-0.035 0.358-1.871 1.089-2.807 1.63-4.666 2.711z"/>
   <path d="m279.1 273.62c-0.177 0.103-0.449 0.111-0.608 0.017-1.676-0.986-2.513-1.48-4.192-2.465-0.159-0.094-0.146-0.253 0.029-0.356 1.854-1.082 2.784-1.625 4.647-2.716 0.177-0.105 0.451-0.112 0.611-0.018 1.678 0.986 2.517 1.478 4.192 2.463 0.159 0.094 0.145 0.254-0.031 0.358-1.864 1.091-2.794 1.634-4.648 2.717z"/>
   <path d="m268.51 267.4c-0.176 0.103-0.447 0.111-0.607 0.017-1.684-0.99-2.527-1.485-4.214-2.476-0.161-0.094-0.149-0.253 0.027-0.355 1.852-1.078 2.787-1.623 4.655-2.71 0.18-0.102 0.454-0.111 0.614-0.017 1.684 0.988 2.525 1.483 4.207 2.471 0.16 0.093 0.145 0.253-0.031 0.357-1.86 1.091-2.799 1.635-4.651 2.713z"/>
   <path d="m273.81 270.51c-0.176 0.102-0.445 0.11-0.607 0.016-1.679-0.987-2.519-1.482-4.202-2.469-0.161-0.094-0.147-0.255 0.028-0.357 1.855-1.076 2.79-1.622 4.65-2.713 0.176-0.103 0.452-0.113 0.609-0.019 1.682 0.988 2.527 1.483 4.203 2.468 0.159 0.093 0.144 0.253-0.033 0.357-1.863 1.087-2.794 1.638-4.648 2.717z"/>
   <path d="m263.2 264.28c-0.177 0.102-0.449 0.11-0.61 0.015-1.689-0.991-2.533-1.488-4.226-2.482-0.16-0.095-0.148-0.253 0.03-0.356 1.859-1.075 2.793-1.615 4.667-2.701 0.177-0.104 0.453-0.112 0.612-0.018 1.688 0.99 2.53 1.486 4.215 2.475 0.159 0.094 0.146 0.254-0.032 0.358-1.869 1.089-2.8 1.63-4.656 2.709z"/>
   <path d="m257.88 261.15c-0.176 0.102-0.45 0.109-0.611 0.015-1.693-0.995-2.542-1.492-4.24-2.49-0.16-0.094-0.148-0.254 0.029-0.356 1.867-1.066 2.809-1.608 4.685-2.689 0.178-0.103 0.453-0.111 0.613-0.017 1.691 0.992 2.537 1.488 4.225 2.48 0.16 0.093 0.144 0.253-0.033 0.357-1.873 1.086-2.809 1.626-4.668 2.7z"/>
   <path d="m256.52 261.93c-1.857 1.07-2.785 1.608-4.634 2.672-0.175 0.101-0.448 0.106-0.61 0.011-1.698-0.999-2.55-1.5-4.255-2.502-0.161-0.095-0.153-0.254 0.025-0.354 1.855-1.06 2.784-1.596 4.647-2.66 0.178-0.102 0.452-0.107 0.612-0.013 1.699 0.998 2.549 1.496 4.241 2.491 0.164 0.095 0.15 0.254-0.026 0.355z"/>
  </g>
 </g>
 <g transform="matrix(.99771 0 0 .99771 -46.393 -55.359)">
  <polygon points="70.134 239.06 119.96 267.64 119.79 146.86 70.295 118.28" fill="#354854"/>
  <polygon points="73.597 124.01 73.448 237.14 116.64 261.92 116.49 148.77" fill="#222c34"/>
  <polygon points="116.64 194.16 73.448 169.39 73.507 124.01 116.58 148.72" fill="#222c34"/>
  <g fill="#354854">
   <polygon points="114.26 222.19 75.824 200.14 75.877 187.39 114.21 209.38"/>
   <polygon points="114.26 238.19 75.824 216.14 75.877 203.39 114.21 225.38"/>
   <polygon points="114.26 254.18 75.824 232.14 75.877 219.39 114.21 241.37"/>
   <polygon points="106.21 199.93 83.878 187.12 83.909 179.71 106.18 192.49"/>
  </g>
  <g>
   <polygon points="111.28 184.54 78.506 166.01 78.537 158.6 111.25 177.09" fill="#c7d5e3"/>
   <polygon points="225.71 86.664 200.91 72.347 176.21 58.087 70.295 118.28 95.069 132.59 119.79 146.86" fill="#222c34"/>
   <path d="m225.71 86.664-105.91 56.946 0.161 124.03 105.91-60.196z" fill="#222c34"/>
  </g>
  <path d="m84.611 136.18c-3.319-1.916-6.025-0.381-6.035 3.439-0.011 3.814 2.677 8.469 5.996 10.386 3.325 1.92 6.024 0.375 6.035-3.439 0.011-3.821-2.671-8.466-5.996-10.386z" fill="#dfe5ea"/>
  <path d="m84.606 137.66c-2.61-1.507-4.738-0.3-4.746 2.705-8e-3 2.999 2.105 6.66 4.715 8.167 2.615 1.51 4.738 0.295 4.746-2.705 9e-3 -3.004-2.1-6.658-4.715-8.167z" fill="#354854"/>
  <path d="m98.042 148.01c-1.374-0.793-2.494-0.158-2.499 1.424-5e-3 1.579 1.108 3.506 2.482 4.3 1.376 0.795 2.494 0.155 2.499-1.424 5e-3 -1.582-1.105-3.505-2.482-4.3z" fill="#e0e7ec"/>
  <path d="m98.04 148.62c-1.081-0.624-1.961-0.124-1.965 1.12-4e-3 1.242 0.872 2.758 1.952 3.381 1.082 0.625 1.961 0.122 1.965-1.12 4e-3 -1.244-0.869-2.757-1.952-3.381z" fill="#5988ac"/>
  <path d="m108.63 177.71c-0.981-0.566-1.781-0.113-1.784 1.016-3e-3 1.127 0.791 2.503 1.772 3.07 0.983 0.567 1.781 0.111 1.784-1.017s-0.789-2.501-1.772-3.069z" fill="#354854"/>
  <g enable-background="new">
   <polygon points="128.28 246.83 128.19 215.75 134.53 219.44 134.62 250.52" fill="#354854"/>
   <polygon points="128.19 215.75 176.36 123.7 182.71 127.39 134.53 219.44" fill="#2c4147"/>
   <polygon points="176.36 123.7 210.86 103.78 217.2 107.47 182.71 127.39" fill="#4b6375"/>
  </g>
  <g fill="#354854">
   <polygon points="190.35 191.52 215.46 177.12 215.42 174.71 190.38 189.07"/>
   <polygon points="190.35 195.85 215.46 181.44 215.42 179.03 190.38 193.4"/>
   <polygon points="190.35 200.17 215.46 185.77 215.42 183.36 190.38 197.72"/>
   <polygon points="190.35 204.5 215.46 190.09 215.42 187.68 190.38 202.04"/>
   <polygon points="190.35 208.82 215.46 194.42 215.42 192 190.38 206.37"/>
   <polygon points="190.35 213.14 215.46 198.74 215.42 196.33 190.38 210.69"/>
  </g>
  <g enable-background="new">
   <polygon points="121.05 141.44 79.332 117.36 85.983 110.53 114.46 126.97" fill="#161c1f"/>
   <polygon points="209.55 72.187 216.14 86.664 121.05 141.44 114.46 126.97" fill="#171f23"/>
   <polygon points="181.08 55.747 209.55 72.187 114.46 126.97 85.983 110.53" fill="#222c34"/>
  </g>
  <path d="m105.26 114.38c-0.504 0.291-0.507 0.763-6e-3 1.055 0.501 0.291 1.316 0.291 1.82 0s0.507-0.763 6e-3 -1.055-1.316-0.292-1.82 0z" fill="#354854"/>
  <path d="m92.076 111.06c-0.538 0.311-0.541 0.814-6e-3 1.124l4.291 2.494c0.535 0.311 1.403 0.311 1.941 0s0.541-0.814 6e-3 -1.124l-4.291-2.494c-0.534-0.311-1.402-0.311-1.941 0z" fill="#354854"/>
  <path d="m99.536 115.46c-0.538 0.311-0.541 0.814-6e-3 1.124l4.291 2.494c0.535 0.311 1.403 0.311 1.941 0s0.541-0.814 6e-3 -1.124l-4.291-2.494c-0.535-0.311-1.403-0.311-1.941 0z" fill="#354854"/>
  <path d="m107 119.86c-0.538 0.311-0.541 0.814-6e-3 1.124l4.291 2.493c0.535 0.311 1.403 0.311 1.941 0s0.541-0.814 6e-3 -1.124l-4.291-2.493c-0.534-0.311-1.402-0.311-1.941 0z" fill="#354854"/>
  <g fill="#435a68">
   <polygon points="84.591 156.8 78.537 153.32 78.545 151.31 84.583 154.78"/>
   <polygon points="93.674 161.88 87.62 158.4 87.629 156.4 93.666 159.86"/>
   <polygon points="102.76 166.96 96.704 163.49 96.712 161.48 102.75 164.94"/>
   <polygon points="111.84 172.04 105.79 168.57 105.8 166.56 111.83 170.03"/>
  </g>
 </g>
 <g transform="matrix(.99771 0 0 .99771 -51.6 -29.327)">
  <path d="m384.13 253.76c0.81 0.468 0.814 1.224 0.012 1.69l-32.207 18.717c-0.803 0.466-2.108 0.466-2.918-1e-3l-52.683-30.416c-0.81-0.468-0.814-1.224-0.012-1.69l32.207-18.717c0.803-0.466 2.108-0.466 2.918 1e-3z" fill="#192127"/>
  <path d="m384.7 254.82c-2e-3 7e-3 -4e-3 0.015-6e-3 0.022-0.023 0.065-0.057 0.129-0.098 0.192-8e-3 0.011-0.015 0.023-0.023 0.034-0.045 0.062-0.099 0.122-0.164 0.18-0.042 0.038-0.095 0.072-0.144 0.107-0.043 0.03-0.079 0.063-0.128 0.091l-32.207 18.717c-0.09 0.052-0.187 0.096-0.288 0.137-0.026 0.01-0.053 0.021-0.08 0.03-0.062 0.023-0.128 0.041-0.193 0.059-0.068 0.019-0.136 0.037-0.206 0.051-0.083 0.017-0.166 0.033-0.251 0.043-0.02 3e-3 -0.04 6e-3 -0.06 8e-3 -0.115 0.012-0.231 0.018-0.347 0.019h-0.055c-0.115-1e-3 -0.229-7e-3 -0.342-0.019-0.018-2e-3 -0.035-4e-3 -0.052-6e-3 -0.112-0.013-0.223-0.032-0.331-0.057-0.02-4e-3 -0.04-0.01-0.059-0.015-0.099-0.024-0.194-0.054-0.287-0.087-0.016-6e-3 -0.034-0.011-0.05-0.017-0.111-0.043-0.217-0.092-0.315-0.149l-52.683-30.416c-0.408-0.236-0.611-0.544-0.611-0.852l-6e-3 5.101c-1e-3 0.308 0.203 0.617 0.611 0.852l52.683 30.416c0.094 0.054 0.194 0.102 0.299 0.143 5e-3 2e-3 0.011 3e-3 0.016 5e-3 0.016 6e-3 0.034 0.011 0.05 0.017 0.061 0.022 0.121 0.044 0.185 0.062 0.033 0.01 0.068 0.017 0.102 0.025 0.02 5e-3 0.039 0.01 0.06 0.015 0.018 4e-3 0.036 9e-3 0.054 0.013 0.067 0.014 0.136 0.026 0.205 0.036 0.024 3e-3 0.048 5e-3 0.073 8e-3 0.017 2e-3 0.034 4e-3 0.051 6e-3 0.026 3e-3 0.051 6e-3 0.077 8e-3 0.067 6e-3 0.135 9e-3 0.203 0.011 0.021 0 0.042-1e-3 0.063 0h0.055c0.031 0 0.062 1e-3 0.093 0 0.077-3e-3 0.153-8e-3 0.229-0.015 9e-3 -1e-3 0.017-3e-3 0.025-3e-3 0.02-2e-3 0.04-6e-3 0.06-8e-3 0.059-7e-3 0.119-0.014 0.177-0.025 0.026-5e-3 0.049-0.013 0.074-0.018 0.07-0.014 0.138-0.032 0.206-0.051 0.036-0.01 0.075-0.016 0.11-0.027 0.029-0.01 0.056-0.022 0.084-0.032 0.027-0.01 0.053-0.02 0.08-0.03 0.101-0.04 0.198-0.085 0.288-0.137l32.207-18.717c9e-3 -5e-3 0.017-0.01 0.025-0.015 0.039-0.024 0.067-0.051 0.102-0.076 0.05-0.035 0.103-0.07 0.145-0.107 4e-3 -4e-3 0.01-7e-3 0.014-0.01 0.048-0.044 0.091-0.09 0.128-0.137 8e-3 -0.011 0.014-0.022 0.022-0.033s0.015-0.023 0.023-0.034c0.013-0.019 0.027-0.037 0.038-0.057 0.022-0.039 0.04-0.078 0.055-0.117 2e-3 -6e-3 3e-3 -0.012 5e-3 -0.018 3e-3 -7e-3 4e-3 -0.015 7e-3 -0.023 8e-3 -0.025 0.017-0.05 0.022-0.075 8e-3 -0.039 0.012-0.079 0.014-0.118v-0.018l6e-3 -5.101c-5e-3 0.071-0.018 0.142-0.04 0.212z" fill="#090d10"/>
  <path d="m427.36 290.56c2.592 1.496 4.716 0.286 4.724-2.692l0.317-111.7c9e-3 -2.978-2.101-6.633-4.693-8.129l-177.27-102.35c-2.592-1.496-4.715-0.286-4.724 2.692l-0.317 111.7c-8e-3 2.979 2.101 6.633 4.693 8.129z" fill="#6ad2ff"/>
  <path d="m379.69 140.31-129.25-74.622c-2.592-1.497-4.715-0.286-4.724 2.692l-0.317 111.7c-8e-3 2.979 2.101 6.633 4.693 8.129l46.851 27.05c16.767-15.415 54.792-50.254 82.746-74.954z" fill="#fff" opacity=".1"/>
  <polygon points="344.45 253.68 349.4 250.81 349.42 242.86 344.47 245.74" fill="#435a68"/>
  <path d="m254.39 66.401c-0.798 0.464-1.596 0.928-2.395 1.392-0.981 0.57-2.768 0.657-3.24 1.738-0.204 0.466-0.359 1.465-0.405 1.972-0.861 9.511-0.144 19.213-0.107 28.742 0.038 9.65-2e-3 19.06-0.029 28.71-0.014 5.115-0.122 10.22-0.137 15.335-0.028 9.749-0.114 19.76-0.142 29.508-5e-3 1.872 0.185 3.6725 0.161 5.5415-0.022 1.741 0.028 3.691 1.013 5.176 0.934 1.409 2.98 2.425 4.473 3.217 4.09 2.169 7.505 4.177 11.414 6.434 4.218 2.435 8.513 5.062 12.731 7.497 8.434 4.869 16.83 9.639 25.263 14.508 2.699 1.558 5.115 2.942 7.814 4.5 12.594 7.278 25.264 14.846 37.861 22.119 12.661 7.31 25.498 14.354 38.159 21.664 12.662 7.31 25.277 14.636 37.939 21.947 0.948 0.547 2.4659 1.7684 3.6139 1.7014 0.502-0.029 0.866-0.351 1.3-0.605 1.393-0.817 2.776-1.652 4.182-2.446-0.059 0.02-0.118 0.037-0.175 0.051-0.935 0.227-1.69-0.304-2.48-0.76-1.056-0.609-2.111-1.219-3.167-1.828-2.111-1.219-4.223-2.438-6.334-3.657-4.223-2.438-8.445-4.876-12.668-7.314-4.222-2.438-8.445-4.875-12.667-7.313s-8.444-4.875-12.667-7.313c-4.222-2.438-8.444-4.875-12.666-7.313s-8.444-4.875-12.666-7.313-8.444-4.875-12.666-7.313-8.444-4.875-12.665-7.312c-4.222-2.438-8.444-4.875-12.666-7.313-1.457-0.841-2.912-1.683-4.369-2.523-8.402-4.838-16.793-9.695-25.19-14.543-8.44-4.873-16.968-9.4808-25.409-14.354-2.096-1.21-4.3268-2.6846-6.5692-3.9172-1.2949-0.95419-2.8459-1.7622-4.6024-3.421-1.4638-1.3824-1.238-3.755-1.154-5.699 0.096-2.249 0.054-4.509 0.061-6.763 0.014-4.854 0.028-9.708 0.041-14.563 0.012-4.32 0.025-8.639 0.037-12.959 0.028-9.744 0.163-19.494 0.083-29.237-0.078-9.578-0.022-19.151-0.207-28.727-0.093-4.833-0.096-9.674 0.261-14.497 0.07-0.903 0.151-2.235 1.036-2.75z" fill="#1c242b"/>
  <path d="m440.09 187.11c1e-3 -0.172 6e-3 -0.355 9e-3 -0.531 5e-3 -0.367 0.011-0.736 0.022-1.118 7e-3 -0.246 0.016-0.499 0.025-0.751 0.014-0.409 0.028-0.819 0.043-1.241 0.014-0.383 0.027-0.768 0.039-1.159 8e-3 -0.248 0.014-0.495 0.021-0.747 9e-3 -0.35 0.014-0.702 0.019-1.057 2e-3 -0.165 8e-3 -0.327 9e-3 -0.493 0-0.084-3e-3 -0.169-3e-3 -0.253 0-0.329-5e-3 -0.659-0.011-0.99-3e-3 -0.186-1e-3 -0.369-6e-3 -0.555-3e-3 -0.088-9e-3 -0.176-0.012-0.263-6e-3 -0.163-0.014-0.325-0.022-0.488-9e-3 -0.185-0.014-0.369-0.025-0.554-0.013-0.213-0.033-0.426-0.05-0.639-7e-3 -0.091-0.013-0.182-0.021-0.273-5e-3 -0.05-7e-3 -0.1-0.012-0.15-0.028-0.292-0.06-0.583-0.096-0.873-0.019-0.151-0.042-0.301-0.064-0.452-8e-3 -0.058-0.016-0.115-0.024-0.172-9e-3 -0.059-0.016-0.118-0.025-0.176-0.037-0.234-0.077-0.468-0.12-0.701-0.04-0.216-0.084-0.432-0.13-0.647-3e-3 -0.014-7e-3 -0.029-0.01-0.043-3e-3 -0.015-7e-3 -0.029-0.01-0.044-0.037-0.166-0.074-0.331-0.115-0.496-0.046-0.186-0.094-0.372-0.145-0.557-0.044-0.158-0.09-0.316-0.137-0.473-6e-3 -0.018-0.012-0.036-0.017-0.055-4e-3 -0.013-8e-3 -0.025-0.012-0.038-0.039-0.126-0.078-0.252-0.12-0.377-0.047-0.14-0.095-0.28-0.146-0.419-0.044-0.123-0.09-0.245-0.138-0.367-0.047-0.122-0.096-0.244-0.146-0.365-4e-3 -9e-3 -8e-3 -0.019-0.012-0.028l-6e-3 -0.015c-0.044-0.107-0.09-0.213-0.136-0.319-0.053-0.121-0.109-0.242-0.165-0.362-0.057-0.12-0.115-0.24-0.175-0.359s-0.121-0.238-0.184-0.355c-0.013-0.024-0.029-0.047-0.042-0.071-0.054-0.099-0.118-0.195-0.174-0.293-0.156-0.274-0.309-0.55-0.485-0.817-0.037-0.057-0.075-0.113-0.113-0.169-0.051-0.075-0.104-0.149-0.156-0.223-0.013-0.019-0.026-0.038-0.039-0.056-0.031-0.044-0.061-0.089-0.094-0.133-0.099-0.137-0.201-0.272-0.306-0.407-0.098-0.126-0.2-0.252-0.303-0.376-0.087-0.105-0.176-0.209-0.267-0.312-0.038-0.043-0.077-0.085-0.116-0.128-0.011-0.012-0.021-0.024-0.032-0.035-0.043-0.048-0.086-0.096-0.13-0.144-0.095-0.102-0.191-0.203-0.29-0.303-0.111-0.113-0.224-0.224-0.339-0.335-0.12-0.115-0.242-0.228-0.367-0.34-0.057-0.051-0.116-0.101-0.174-0.151-0.017-0.014-0.033-0.029-0.05-0.043-0.053-0.046-0.105-0.093-0.159-0.139-0.139-0.117-0.281-0.233-0.427-0.348-0.149-0.117-0.301-0.233-0.457-0.348s-0.315-0.228-0.478-0.339c-0.011-8e-3 -0.023-0.016-0.034-0.023-0.489-0.333-0.982-0.656-1.476-0.97-0.116-0.074-0.235-0.141-0.352-0.215-0.366-0.229-0.734-0.451-1.102-0.673-0.229-0.138-0.456-0.283-0.685-0.418-0.216-0.127-0.432-0.253-0.648-0.378-2.87-1.657-5.774-3.141-8.59-4.767-10.305-5.95-20.602-11.894-30.907-17.844-27.382-15.809-54.773-31.623-82.155-47.432-2.687-1.551-5.378-3.128-8.072-4.714-2.846-1.676-5.694-3.364-8.544-5.055-3.019-1.791-6.038-3.58-9.058-5.359-0.201-0.118-0.401-0.238-0.602-0.356-2.497-1.469-4.994-2.928-7.49-4.369-2.557-1.476-5.112-2.925-7.665-4.354-0.788-0.441-1.574-0.868-2.361-1.304-1.198-0.662-2.397-1.336-3.594-1.984-1.081-0.585-2.162-1.164-3.242-1.736-0.132-0.07-0.262-0.136-0.39-0.2-0.176-0.087-0.348-0.169-0.516-0.244-5e-3 -2e-3 -0.01-4e-3 -0.014-6e-3 -9e-3 -4e-3 -0.018-7e-3 -0.027-0.011-0.143-0.063-0.283-0.124-0.42-0.179-0.136-0.055-0.269-0.105-0.399-0.151-5e-3 -2e-3 -0.011-4e-3 -0.017-6e-3l-5e-3 -2e-3c-0.136-0.048-0.268-0.092-0.398-0.131-0.124-0.037-0.246-0.071-0.365-0.101l-4e-3 -1e-3 -9e-3 -2e-3c-0.114-0.028-0.227-0.054-0.336-0.075-0.117-0.023-0.23-0.042-0.341-0.056-6e-3 -1e-3 -0.012-1e-3 -0.012-1e-3 -0.017-2e-3 -0.028-3e-3 -0.038-4e-3 -0.095-0.012-0.188-0.022-0.279-0.029-0.111-8e-3 -0.219-0.011-0.325-0.011l-0.013 1e-3c-0.01 0-0.019 1e-3 -0.028 1e-3 -0.105 2e-3 -0.209 6e-3 -0.308 0.015-0.066 6e-3 -0.129 0.019-0.193 0.028-0.031 5e-3 -0.063 8e-3 -0.093 0.014-0.02 4e-3 -0.041 5e-3 -0.061 9e-3 -0.14 0.028-0.272 0.067-0.4 0.111-0.011 4e-3 -0.023 5e-3 -0.034 0.01l-3e-3 1e-3c-0.163 0.059-0.317 0.131-0.462 0.215l-4.95 2.877c0.146-0.085 0.301-0.157 0.465-0.216 0.011-4e-3 0.023-6e-3 0.034-0.01 0.146-0.051 0.3-0.091 0.461-0.12 0.03-6e-3 0.062-9e-3 0.093-0.014 0.16-0.024 0.326-0.041 0.501-0.043 0.01 0 0.019-1e-3 0.029-1e-3 0.195-2e-3 0.401 0.012 0.616 0.038 0.011 1e-3 0.021 2e-3 0.021 2e-3 0.232 0.03 0.464 0.074 0.707 0.135 0 0 5e-3 1e-3 8e-3 2e-3 0.246 0.062 0.504 0.14 0.774 0.235 5e-3 2e-3 0.011 4e-3 0.016 6e-3 0.262 0.093 0.535 0.203 0.82 0.33 9e-3 4e-3 0.018 7e-3 0.027 0.011 0.294 0.132 0.6 0.281 0.92 0.45 2.276 1.205 4.556 2.459 6.836 3.72 0.787 0.435 0.51334 2.012 1.3003 2.452 2.553 1.429 5.6383 3.5851 8.1953 5.0611 2.696 1.557 5.394 3.0476 8.092 4.6366 3.02 1.778 6.1284 3.6564 9.1464 5.4474 2.85 1.691 3.9312 2.3183 6.7762 3.9943 0.21 0.123 1.9226 0.95611 2.1316 1.0791 2.484 1.461 4.8766 2.7342 7.3546 4.1652 27.382 15.809 54.685 31.535 82.067 47.344 10.305 5.95 20.735 12.157 31.041 18.107 2.816 1.626 5.345 2.36 8.215 4.017 0.446 0.258 0.60775 1.2478 1.4268 0.76475 0.368 1.221 1.2672 0.97425 1.6332 1.2042 0.612 0.384 0.973 1.274 1.578 0.56 0.935 1.882-0.8615 0.2195-0.3815 0.6345-2.233 0.139 0.783 0.3415 0.8 0.3565 0.47 0.41 2.0905 1.46 2.4885 1.899 0.011 0.012-1.229-0.726-1.218-0.714 0.396 0.439 1.4748 0.92325 1.8048 1.3882 0.013 0.019 0.43225 0.88075 0.44525 0.89975 0.277 0.394 0.145 0.6125 0.379 1.0215 0.056 0.098-0.16125 1.5378 0.799 0.57425 0.26 0.48-0.255 0.49925-0.048 0.99625 2e-3 5e-3 0.754 0.135 0.757 0.14 0.213 0.511 0.023 0.62475 0.186 1.1508-0.996 0.762-0.36202-0.13439-0.35802-0.12139 0.161 0.522-0.7105 0.92278 0.37977 1.3664 3e-3 0.013 0.0422 0.24261 0.0452 0.25561 0.114 0.52 0.10827 0.95339 0.18727 1.4784 9e-3 0.058-0.31213-1.0412-0.30413-0.98425 0.07 0.491 0.36138 1.5142 0.40638 2.0062 8e-3 0.091-1.361 0.21325 0.10012 0.7105 0.033 0.398-0.22525-0.079-0.20625 0.318 8e-3 0.163 0.0951 0.576 0.55325 0.78487-0.19312 0.99275-0.237 1.1085-0.232 1.3815 6e-3 0.331 0.0579 0.7245 0.0579 1.0525 0 0.25 0.0595 0.51362 0.0565 0.76162-5e-3 0.354-0.0569 0.84762-0.0659 1.1976-7e-3 0.25 0.0339 0.48438 0.0259 0.73138-0.12138 1.5931-9e-3 1.8249-0.0234 2.2059-0.015 0.42 2e-3 0.61525-0.0117 1.0222-9e-3 0.251 0.107 0.34975 0.1 0.59475-0.011 0.381 0.0611 0.11037 0.0561 0.47737-2e-3 0.137-1.257 0.0779-0.0861 0.43163-1.4531 0.75775-0.0937 0.87387-0.0948 0.91187-0.62639 14.124-0.39715 27.039 0.38238 40.938-0.041 14.655 0.7125 29.408 0.6705 44.073-1e-3 0.338 3e-3 0.695 0.011 1.063 2e-3 0.121 6e-3 0.249 9e-3 0.373 5e-3 0.194 9e-3 0.383 0.015 0.583 2e-3 0.055 4e-3 0.117 6e-3 0.173 0.018 0.548 0.038 1.119 0.06 1.703 0.018 0.476 0.035 0.966 0.051 1.457 5e-3 0.15 9e-3 0.3 0.014 0.451 0.026 0.886 0.043 1.785 0.042 2.676 0 0.108 1e-3 0.216 0 0.323-3e-3 0.539-0.013 1.074-0.035 1.599-0.01 0.237-0.027 0.467-0.041 0.7-0.012 0.198-0.02 0.401-0.036 0.595-0.032 0.395-0.073 0.779-0.121 1.154-0.01 0.082-0.024 0.161-0.035 0.242-0.041 0.288-0.087 0.57-0.139 0.843-0.017 0.089-0.034 0.178-0.053 0.265-0.069 0.325-0.144 0.641-0.232 0.939-0.01 0.035-0.023 0.067-0.033 0.101-0.083 0.27-0.177 0.525-0.278 0.768-0.025 0.061-0.05 0.123-0.077 0.182-0.121 0.268-0.252 0.522-0.399 0.75-0.108 0.167-0.234 0.306-0.357 0.45-0.064 0.074-0.117 0.163-0.185 0.231-0.199 0.199-0.416 0.37-0.654 0.508l4.95-2.877c0.238-0.138 0.455-0.309 0.654-0.508 0.067-0.067 0.119-0.154 0.182-0.227 0.124-0.145 0.251-0.285 0.36-0.454 2e-3 -3e-3 5e-3 -6e-3 7e-3 -9e-3 0.121-0.189 0.232-0.391 0.335-0.607 0.02-0.042 0.037-0.09 0.056-0.133 0.027-0.06 0.052-0.123 0.078-0.185 0.038-0.092 0.08-0.179 0.116-0.276 0.058-0.156 0.11-0.322 0.161-0.488 0.011-0.036 0.024-0.069 0.034-0.105 4e-3 -0.014 9e-3 -0.026 0.013-0.039 0.064-0.22 0.123-0.448 0.176-0.683 0.016-0.069 0.028-0.144 0.043-0.215 0.018-0.087 0.036-0.176 0.053-0.265 0.019-0.1 0.042-0.196 0.059-0.298 0.03-0.176 0.054-0.361 0.08-0.542 0.012-0.083 0.025-0.163 0.036-0.246 4e-3 -0.031 0.01-0.06 0.013-0.092 0.042-0.337 0.077-0.682 0.105-1.034 1e-3 -9e-3 1e-3 -0.018 2e-3 -0.026 0.016-0.195 0.024-0.397 0.036-0.595 0.014-0.223 0.031-0.442 0.04-0.669 0-0.01 0-0.021 1e-3 -0.031 0.022-0.525 0.031-1.06 0.035-1.599 0-0.043 3e-3 -0.084 3e-3 -0.126 0-0.065-3e-3 -0.132-3e-3 -0.197 1e-3 -0.891-0.016-1.788-0.042-2.675-1e-3 -0.03-1e-3 -0.061-1e-3 -0.091-4e-3 -0.122-9e-3 -0.238-0.013-0.36-0.016-0.493-0.033-0.979-0.051-1.457-0.022-0.586-0.043-1.153-0.06-1.703-8e-3 -0.259-0.015-0.508-0.021-0.756-3e-3 -0.124-7e-3 -0.252-9e-3 -0.373-7e-3 -0.368-0.012-0.725-0.011-1.063 0.042-14.665 0.083-29.331 0.125-43.985 0.032-14.041 0.072-28.067 0.112-42.094z" fill="#425567"/>
  <path d="m435.14 189.98c0.021-7.41 1.965-18.282-7.144-24.492-1.402-0.954-2.828-1.825-4.262-2.654-2.87-1.657-5.774-3.141-8.59-4.767-10.305-5.95-20.601-11.894-30.907-17.844-27.382-15.809-54.773-31.623-82.154-47.432-11.216-6.476-22.505-13.351-33.767-19.853-5.632-3.251-11.255-6.409-16.862-9.378-7.804-4.124-7.941 3.075-7.96 9.887-0.036 12.779-0.073 25.559-0.109 38.338-0.043 15.325-0.087 30.639-0.13 45.964-0.015 5.369-0.031 10.739-0.046 16.108-6e-3 2.288-0.319 4.884 0.23 7.452 1.34 6.232 5.684 9.468 9.933 11.921 1.544 0.891 3.075 1.679 4.445 2.47 8.888 5.132 17.767 10.258 26.655 15.39l49.212 28.413-0.022 7.946 10.79 6.229 0.023-7.946c26.682 15.405 53.365 30.81 80.047 46.215 1.04 0.601 2.081 1.201 3.121 1.802 0.242 0.14 0.458 0.212 0.664 0.27 8.686 3.662 6.8352-11.001 6.8562-18.143 0.041-14.665-0.18217-29.153-0.14017-43.808 0.038-14.035 0.078-28.062 0.117-42.088zm-5.028 12.013c-0.075 26.548-0.151 53.096-0.226 79.644-9e-3 3.02 0.743 7.263-2.443 6.259-39.262-23.095-77.59-44.797-116.38-67.192-18.879-10.9-37.494-21.977-56.382-32.882-0.759-0.438-1.8589-1.1732-2.7679-1.6972-0.454-0.262-2.0187-1.4832-2.8011-3.1504-1.0617-3.1776-0.91601-3.9194-0.90801-6.5984 0.032-11.223 0.0419-20.667 0.0729-31.89l0.126-44.367c0.027-9.42-0.779-19.877 0.082-28.774 0.306-3.166 2.458-2.512 4.885-1.111 1.32 0.762 2.722 1.746 3.951 2.455 8.242 4.759 16.485 9.517 24.718 14.271l138.06 79.707c1.279 0.738 3.032 1.503 4.72 2.477 2.588 1.494 5.025 3.483 5.369 6.631 0.99 8.974-0.05 17.777-0.074 26.218z" fill="#252e37"/>
  <path transform="matrix(.72887 0 0 .72887 86.976 46.992)" d="m311.91 197.39-58.774-66.32v-7.836l59.269-2.635-0.0791 12.26-47.405 0.49544 47.066 51.947zm52.584-63.346-34.412 91.844-10.697-6.1891 34.292-91.932zm6.4939 85.419 47.392 2.9588-46.715-55.159 0.15829-12.204 58.351 70.756-0.15069 7.7284-59.192-2.0472z" stroke-width="39.745" aria-label="&lt;/&gt;"/>
 </g>
 <g transform="matrix(.99771 0 0 .99771 -102.06 -34.793)">
  <path d="m432.52 345.46c3.963 2.288 3.978 6.005 0.041 8.293l-35.324 20.528c-3.943 2.291-10.355 2.292-14.317 4e-3l-43.171-24.925c-3.969-2.291-3.99-6.005-0.047-8.297l35.324-20.528c3.937-2.288 10.355-2.292 14.323 0z" fill="#4b6375"/>
  <path d="m404.55 339c2e-3 -0.058 4e-3 -0.122 8e-3 -0.173-0.02 0.322-0.06 0.638-0.113 0.952-0.091 0.448-0.234 0.896-0.427 1.342-0.024 0.053-0.05 0.105-0.075 0.158-0.06 0.126-0.119 0.251-0.188 0.377-0.014 0.026-0.028 0.051-0.042 0.077-0.093 0.166-0.194 0.332-0.302 0.499-0.034 0.052-0.065 0.104-0.1 0.156-0.136 0.2-0.284 0.399-0.441 0.599-0.044 0.056-0.09 0.111-0.136 0.167-3e-3 4e-3 -7e-3 8e-3 -0.01 0.012-0.136 0.165-0.279 0.33-0.43 0.494-3e-3 3e-3 -6e-3 6e-3 -9e-3 0.01-0.055 0.06-0.111 0.12-0.168 0.18-0.18 0.188-0.368 0.375-0.566 0.56-0.013 0.012-0.024 0.024-0.037 0.036-0.047 0.044-0.098 0.087-0.146 0.13-0.16 0.144-0.324 0.29-0.508 0.441-3e-3 2e-3 -5e-3 4e-3 -8e-3 7e-3 -0.42 0.344-0.907 0.705-1.437 1.075-0.026 0.018-0.053 0.036-0.08 0.054-0.122 0.082-0.244 0.164-0.37 0.245-0.117 0.075-0.238 0.149-0.358 0.223-0.136 0.084-0.272 0.168-0.413 0.251-0.24 0.139-0.475 0.275-0.703 0.405-0.041 0.024-0.082 0.047-0.124 0.071-0.307 0.175-0.603 0.343-0.891 0.504-3.896 2.174-7.156 3.65-9.935 4.588-0.107 0.036-0.209 0.071-0.308 0.104-0.102 0.034-0.201 0.063-0.302 0.095-0.3 0.095-0.595 0.185-0.885 0.267-0.111 0.032-0.221 0.063-0.331 0.093-0.316 0.086-0.625 0.166-0.927 0.237-0.049 0.011-0.099 0.025-0.147 0.036-0.346 0.08-0.683 0.148-1.012 0.209-0.09 0.017-0.177 0.031-0.266 0.046-0.249 0.043-0.493 0.08-0.733 0.113-0.052 7e-3 -0.104 0.014-0.155 0.021-0.076 0.01-0.15 0.018-0.225 0.026-0.216 0.025-0.429 0.047-0.638 0.063-0.11 9e-3 -0.22 0.016-0.328 0.023-0.193 0.012-0.382 0.019-0.569 0.024-0.303 8e-3 -0.598 7e-3 -0.886-3e-3 -0.017 0-0.034 0-0.051-1e-3 -0.148-5e-3 -0.29-0.017-0.435-0.026-0.2-0.013-0.398-0.028-0.591-0.049-0.045-5e-3 -0.089-0.01-0.133-0.015-0.12-0.014-0.239-0.031-0.357-0.048-0.197-0.029-0.393-0.06-0.584-0.097-1e-3 0-2e-3 0-3e-3 -1e-3 -0.13-0.025-0.257-0.052-0.384-0.081-0.31-0.07-0.612-0.148-0.907-0.237-0.016-5e-3 -0.033-9e-3 -0.049-0.014-0.12-0.036-0.237-0.077-0.354-0.117-0.244-0.082-0.484-0.168-0.719-0.261-0.078-0.031-0.155-0.063-0.231-0.095-0.222-0.092-0.438-0.191-0.653-0.293-0.062-0.029-0.126-0.056-0.188-0.086-0.044-0.021-0.088-0.042-0.132-0.064-0.024-0.012-0.048-0.023-0.071-0.035-0.021-0.011-0.043-0.021-0.064-0.032-0.336-0.171-0.668-0.347-0.992-0.534-1.888-1.09-3.346-2.272-3.602-3.8-0.02-0.172-0.037-0.341-0.044-0.49 0 0.126 9e-3 0.249 0.025 0.37 0.02 0.241 0.045 0.427 0.085 0.605 6e-3 0.03 0.015 0.061 0.022 0.092 8e-3 0.044 0.016 0.091 0.024 0.132 0.042 0.2 0.144 0.448 0.223 0.643 3e-3 6e-3 4e-3 0.012 7e-3 0.018 1e-3 3e-3 3e-3 6e-3 4e-3 9e-3 0.043 0.106 0.12 0.267 0.222 0.452 4e-3 8e-3 8e-3 0.015 0.013 0.023 0.075 0.135 0.168 0.284 0.283 0.451 0.014 0.02 0.025 0.04 0.039 0.06 0.116 0.163 0.248 0.337 0.407 0.522 0.142 0.165 0.303 0.329 0.472 0.493l0.057 0.059 0.061 0.054c0.104 0.097 0.215 0.194 0.329 0.291l0.092 0.081 0.023 0.017c0.18 0.148 0.374 0.296 0.576 0.443l0.04 0.03c0.022 0.016 0.051 0.035 0.075 0.051 0.542 0.385 1.156 0.765 1.846 1.137 4e-3 2e-3 8e-3 4e-3 0.013 7e-3 0.021 0.011 0.043 0.022 0.064 0.033 0.185 0.099 0.365 0.192 0.54 0.279l0.111 0.057c0.064 0.032 0.143 0.066 0.217 0.1 0.137 0.065 0.273 0.126 0.406 0.184 0.057 0.025 0.119 0.053 0.17 0.076l0.037 0.014c0.227 0.095 0.451 0.181 0.673 0.259l0.046 0.018c0.038 0.013 0.082 0.026 0.123 0.039 0.278 0.093 0.557 0.176 0.841 0.248 0.048 0.013 0.099 0.028 0.143 0.04l0.168 0.034c0.211 0.047 0.424 0.092 0.646 0.131 1e-3 0 3e-3 0 4e-3 1e-3h1e-3c5e-3 1e-3 0.01 1e-3 0.014 2e-3 0.074 0.012 0.155 0.023 0.239 0.033 0.19 0.028 0.38 0.051 0.572 0.068 0.036 3e-3 0.072 5e-3 0.108 8e-3 0.268 0.021 0.538 0.033 0.807 0.035l0.012 1e-3h0.012c0.012 0 0.023 1e-3 0.035 1e-3h0.026c0.29 0 0.579-9e-3 0.866-0.027h0.014c0.095-6e-3 0.188-0.015 0.283-0.023 0.225-0.019 0.448-0.042 0.669-0.07l0.086-8e-3c5e-3 -1e-3 0.011-2e-3 0.016-2e-3 3e-3 -1e-3 6e-3 -1e-3 0.01-1e-3 0.013-2e-3 0.024-4e-3 0.037-6e-3 2e-3 0 5e-3 -1e-3 7e-3 -1e-3 0.323-0.044 0.639-0.097 0.95-0.155 0.038-6e-3 0.079-0.013 0.114-0.019l0.07-0.016c0.075-0.015 0.15-0.029 0.224-0.045 0.751-0.152 1.442-0.334 2.176-0.559 0.024-7e-3 0.051-0.014 0.073-0.021l0.048-0.016c0.077-0.024 0.157-0.05 0.235-0.075 0.104-0.033 0.201-0.064 0.299-0.096 0.077-0.025 0.153-0.05 0.231-0.076 0.172-0.057 0.329-0.11 0.474-0.16 0.04-0.014 0.077-0.026 0.117-0.04 0.017-6e-3 0.034-0.012 0.051-0.018 0.059-0.02 0.124-0.043 0.194-0.069 2.118-0.749 4.68-1.944 6.199-2.719l0.138-0.069c1.263-0.627 2.575-1.322 3.821-2.056 0.335-0.189 0.642-0.366 0.889-0.517 0.283-0.173 0.525-0.326 0.751-0.473 0.081-0.051 0.161-0.102 0.234-0.148l0.149-0.105c0.245-0.165 0.462-0.319 0.659-0.464l0.11-0.077c0.109-0.082 0.231-0.177 0.354-0.275 0.196-0.154 0.386-0.308 0.586-0.47 0.204-0.166 0.45-0.382 0.665-0.587 0.797-0.73 1.459-1.502 1.987-2.312 0.043-0.067 0.09-0.132 0.131-0.199 9e-3 -0.012 0.018-0.027 0.027-0.039l0.067-0.116c0.052-0.087 0.109-0.173 0.158-0.262l0.058-0.093c-0.015 0.026-0.037 0.055-0.052 0.082 3e-3 -5e-3 5e-3 -0.011 8e-3 -0.017 0.074-0.127 0.142-0.249 0.202-0.355 2e-3 -4e-3 0.099-0.185 0.226-0.464l0.02-0.042 7e-3 -0.018c0.051-0.115 0.106-0.247 0.161-0.387 7e-3 -0.017 0.016-0.036 0.022-0.052l0.013-0.039c0.029-0.077 0.057-0.156 0.086-0.238l0.015-0.039c-3e-3 7e-3 -7e-3 0.014-9e-3 0.021 0.053-0.155 0.104-0.314 0.148-0.48 0.054-0.203 0.105-0.454 0.147-0.691 5e-3 -0.024 0.012-0.052 0.017-0.075-3e-3 0.015-9e-3 0.03-0.012 0.046 0.018-0.106 0.035-0.209 0.048-0.302 0.021-0.15 0.029-0.329 0.035-0.503l0.01-0.138c-3e-3 0.024-7e-3 0.04-7e-3 0.056z" fill="#85a4c2"/>
  <path d="m404.56 337.64c0-0.038-1e-3 -0.089-1e-3 -0.128v0.042c-3e-3 -0.283-0.011-0.453-0.043-0.671-5e-3 -0.036-0.01-0.073-0.016-0.11-2e-3 -0.014-5e-3 -0.029-7e-3 -0.043-5e-3 -0.041-0.01-0.082-0.017-0.131l8e-3 0.072c-0.048-0.336-0.125-0.673-0.244-1.022-3e-3 -0.011-7e-3 -0.021-0.01-0.032-7e-3 -0.019-0.013-0.038-0.02-0.057-0.46-1.406-1.424-2.425-2.327-3.113-0.11-0.086-0.22-0.169-0.318-0.24-0.198-0.144-0.482-0.306-0.69-0.438 0.04 0.023 0.087 0.051 0.124 0.072-0.038-0.022-0.09-0.052-0.128-0.075l-0.138-0.078-0.747-0.376c-0.223-0.099-0.512-0.208-0.76-0.304-0.021-8e-3 -0.041-0.016-0.062-0.024-3e-3 -1e-3 -6e-3 -2e-3 -9e-3 -3e-3l0.111 0.038-0.173-0.062-0.087-0.027-0.211-0.072c-0.043-0.013-0.088-0.021-0.131-0.033l-0.389-0.12s-2e-3 0-3e-3 -1e-3c-0.298-0.081-0.605-0.149-0.92-0.21l0.036 6e-3 -0.037-6e-3c-0.083-0.016-0.17-0.028-0.254-0.043l-0.415-0.07c-7e-3 -1e-3 -0.014-1e-3 -0.021-2e-3l0.395 0.066c-0.066-0.011-0.135-0.02-0.202-0.03-0.069-0.013-0.138-0.025-0.203-0.036 4e-3 0 7e-3 1e-3 0.011 1e-3l-0.081-0.013-0.179-0.02c-0.113-0.014-0.228-0.025-0.343-0.037l-0.383-0.042c-0.144-0.012-0.313-0.021-0.481-0.029-0.012-1e-3 -0.024-1e-3 -0.036-2e-3 -0.137-7e-3 -0.272-0.013-0.392-0.019l0.051 1e-3 -0.07-2e-3h-0.028l-0.238-6e-3c-0.045 0-0.092 3e-3 -0.137 4e-3l-0.316-2e-3h-4e-3l-0.236-1e-3c-0.156 3e-3 -0.34 0.01-0.522 0.019-0.132 5e-3 -0.264 0.011-0.396 0.018-0.023 1e-3 -0.048 2e-3 -0.07 3e-3 -0.024 1e-3 -0.043 4e-3 -0.067 5e-3 -0.216 0.013-0.431 0.03-0.645 0.049-0.053 5e-3 -0.11 9e-3 -0.163 0.014-0.704 0.07-1.393 0.171-2.06 0.296l-0.177 0.03c-0.318 0.054-0.679 0.132-1.036 0.217-0.018 4e-3 -0.039 8e-3 -0.057 0.012l-0.098 0.025c-0.35 0.084-0.693 0.172-0.985 0.247-7e-3 2e-3 -0.447 0.116-1.104 0.324-7e-3 2e-3 -0.015 4e-3 -0.021 6e-3l-0.025 8e-3c-0.078 0.025-0.155 0.049-0.239 0.076 2e-3 -1e-3 4e-3 -1e-3 6e-3 -2e-3 -0.097 0.033-0.21 0.07-0.322 0.108-0.056 0.019-0.11 0.037-0.168 0.057-0.016 6e-3 -0.036 0.012-0.052 0.018-6e-3 2e-3 -0.012 5e-3 -0.018 7e-3 -0.076 0.026-0.153 0.053-0.231 0.081-0.014 5e-3 -0.032 0.011-0.046 0.016-7e-3 3e-3 -0.015 6e-3 -0.022 8e-3 -9e-3 3e-3 -0.017 6e-3 -0.026 9e-3 -0.024 9e-3 -0.052 0.02-0.076 0.029-0.097 0.036-0.198 0.074-0.302 0.115-0.078 0.03-0.152 0.059-0.233 0.09-0.169 0.066-0.335 0.131-0.48 0.187l-0.495 0.215c-0.206 0.088-0.406 0.175-0.587 0.255-0.065 0.029-0.482 0.217-1.096 0.536-0.011 5e-3 -0.024 0.012-0.035 0.017l-0.04 0.022c-0.298 0.156-0.635 0.339-1.006 0.552-0.407 0.234-0.879 0.518-1.339 0.799l-0.028 0.017-0.031 0.019c-0.116 0.071-0.23 0.141-0.342 0.21-0.457 0.278-0.933 0.575-1.421 0.887-0.041 0.026-0.076 0.048-0.107 0.068l-0.046 0.029c-0.01 6e-3 -0.021 0.014-0.031 0.02-0.029 0.018-0.049 0.031-0.051 0.032-0.014 9e-3 -0.029 0.019-0.043 0.029-0.103 0.067-0.207 0.135-0.31 0.203-1e-3 1e-3 -2e-3 1e-3 -2e-3 1e-3 -0.302 0.198-0.605 0.4-0.909 0.606-0.161 0.108-0.316 0.211-0.458 0.306l-0.37 0.264c-0.408 0.283-0.801 0.562-1.146 0.819-0.576 0.43-1.031 0.79-1.404 1.097-5e-3 4e-3 -0.012 0.01-0.018 0.014l-0.016 0.014c-0.509 0.421-0.856 0.736-1.102 0.96-0.176 0.16-0.341 0.318-0.501 0.475-0.071 0.069-0.136 0.136-0.203 0.204-0.069 0.07-0.137 0.139-0.203 0.209-0.891 0.933-1.461 1.75-1.825 2.459-0.1 0.19-0.198 0.397-0.284 0.607l-3e-3 6e-3c-1e-3 2e-3 -1e-3 4e-3 -2e-3 5e-3 -0.067 0.163-0.128 0.325-0.171 0.472-0.039 0.134-0.071 0.285-0.101 0.441-0.03 0.115-0.057 0.226-0.082 0.328-0.018 0.225-0.043 0.525-0.061 0.75-5e-3 1.771 1.56 3.085 3.646 4.29 0.154 0.089 0.309 0.176 0.465 0.261 0.01 6e-3 0.021 0.011 0.031 0.016 0.023 0.012 0.046 0.025 0.069 0.037 0.019 0.01 0.038 0.021 0.058 0.031 0.013 7e-3 0.025 0.013 0.038 0.02 0.02 0.01 0.039 0.02 0.059 0.031 0.026 0.014 0.052 0.027 0.078 0.041 0.015 8e-3 0.03 0.017 0.045 0.024 0.01 5e-3 0.021 0.01 0.031 0.015 0.022 0.011 0.043 0.023 0.065 0.034 0.021 0.011 0.043 0.021 0.064 0.032 0.014 7e-3 0.027 0.014 0.041 0.021 3e-3 1e-3 5e-3 3e-3 7e-3 4e-3 0.018 9e-3 0.037 0.018 0.055 0.027 0.017 9e-3 0.035 0.017 0.052 0.025 0.034 0.017 0.068 0.034 0.103 0.051 0.026 0.013 0.052 0.025 0.078 0.038 0.017 8e-3 0.033 0.017 0.05 0.024 0.011 5e-3 0.021 0.01 0.032 0.015 0.026 0.012 0.052 0.024 0.077 0.035 0.02 0.01 0.041 0.019 0.061 0.029 0.035 0.016 0.07 0.031 0.104 0.047l0.051 0.024c0.02 9e-3 0.04 0.017 0.06 0.025 0.032 0.014 0.064 0.03 0.096 0.044 0.014 6e-3 0.027 0.012 0.041 0.018 0.015 7e-3 0.03 0.013 0.045 0.019 0.026 0.011 0.053 0.022 0.079 0.033l0.084 0.036c5e-3 2e-3 9e-3 4e-3 0.013 6e-3s8e-3 4e-3 0.012 5e-3c0.036 0.015 0.074 0.028 0.11 0.043 6e-3 2e-3 0.012 5e-3 0.017 7e-3 0.013 5e-3 0.026 0.012 0.04 0.018-2e-3 -1e-3 -5e-3 -3e-3 -7e-3 -4e-3 0.017 7e-3 0.035 0.014 0.052 0.021 0.019 8e-3 0.038 0.015 0.057 0.022 0.02 8e-3 0.041 0.016 0.061 0.023 0.029 0.011 0.058 0.021 0.086 0.032 0.019 7e-3 0.038 0.015 0.057 0.022 0.011 4e-3 0.021 8e-3 0.032 0.012 0.015 5e-3 0.029 0.011 0.044 0.016 0.032 0.012 0.064 0.022 0.096 0.034 0.024 9e-3 0.048 0.018 0.073 0.027 0.023 8e-3 0.046 0.016 0.068 0.024 0.052 0.018 0.105 0.035 0.158 0.052 0.05 0.017 0.1 0.033 0.15 0.049 0.015 5e-3 0.029 0.01 0.044 0.015 7e-3 2e-3 0.013 5e-3 0.02 7e-3 0.019 6e-3 0.038 0.011 0.057 0.017 0.017 5e-3 0.033 0.011 0.05 0.016 0.018 5e-3 0.036 0.01 0.054 0.016 0.022 7e-3 0.045 0.013 0.067 0.02 0.013 4e-3 0.027 8e-3 0.041 0.012 8e-3 2e-3 0.015 5e-3 0.023 8e-3 -1e-3 -1e-3 -3e-3 -1e-3 -4e-3 -2e-3 0.042 0.012 0.087 0.022 0.129 0.034 0.014 4e-3 0.029 8e-3 0.043 0.012 0.046 0.013 0.091 0.027 0.137 0.039 0.015 4e-3 0.029 8e-3 0.044 0.011 0.022 6e-3 0.045 0.011 0.068 0.017 0.016 4e-3 0.031 9e-3 0.047 0.012 4e-3 1e-3 9e-3 2e-3 0.013 3e-3 0.013 3e-3 0.027 6e-3 0.041 9e-3 0.051 0.013 0.104 0.023 0.156 0.035 2e-3 1e-3 4e-3 1e-3 6e-3 1e-3 0.018 4e-3 0.035 8e-3 0.053 0.012 0.047 0.011 0.092 0.022 0.139 0.033 0.022 5e-3 0.043 0.01 0.066 0.015h2e-3c2e-3 0 4e-3 1e-3 7e-3 1e-3 4e-3 1e-3 7e-3 2e-3 0.01 2e-3 0.012 2e-3 0.024 4e-3 0.035 7e-3 0.011 2e-3 0.021 5e-3 0.032 7e-3 0.069 0.014 0.141 0.025 0.211 0.038 0.047 9e-3 0.092 0.019 0.139 0.027 0.021 4e-3 0.042 7e-3 0.063 0.01 0.044 8e-3 0.088 0.015 0.132 0.022 0.018 3e-3 0.035 7e-3 0.053 9e-3 0.013 2e-3 0.026 3e-3 0.039 5e-3 0.023 3e-3 0.046 6e-3 0.068 0.01 0.017 3e-3 0.033 6e-3 0.051 9e-3 -4e-3 -1e-3 -8e-3 -3e-3 -0.012-4e-3h2e-3c0.028 4e-3 0.055 7e-3 0.082 0.011 0.029 4e-3 0.058 8e-3 0.087 0.012 0.035 5e-3 0.07 0.01 0.105 0.015 0.035 4e-3 0.07 9e-3 0.106 0.013 0.018 2e-3 0.035 4e-3 0.053 6e-3 0.023 3e-3 0.045 5e-3 0.068 7e-3 0.024 3e-3 0.049 5e-3 0.073 7e-3 0.041 4e-3 0.084 6e-3 0.126 0.01 0.037 3e-3 0.072 9e-3 0.11 0.013-4e-3 -1e-3 -9e-3 -3e-3 -0.013-4e-3 0.078 7e-3 0.156 0.014 0.236 0.019 0.048 3e-3 0.095 6e-3 0.143 9e-3 0.028 2e-3 0.056 4e-3 0.084 5e-3 0.023 1e-3 0.046 1e-3 0.069 2e-3 0.036 2e-3 0.074 2e-3 0.111 4e-3 0.063 2e-3 0.124 6e-3 0.187 8e-3 5e-3 0 0.01 1e-3 0.016 1e-3 -1e-3 0-3e-3 -1e-3 -4e-3 -1e-3h0.044c0.065 1e-3 0.131 2e-3 0.196 2e-3 0.073 1e-3 0.146 0 0.219 0 0.042 0 0.082 1e-3 0.124 0 0.045-1e-3 0.091-2e-3 0.136-3e-3 0.057-1e-3 0.115-3e-3 0.173-5e-3 0.015-1e-3 0.028 1e-3 0.043 0-4e-3 0-8e-3 -1e-3 -0.013-2e-3 0.017-1e-3 0.035-2e-3 0.052-3e-3 0.077-3e-3 0.154-6e-3 0.231-0.01 0.072-4e-3 0.143-8e-3 0.216-0.012 0.026-2e-3 0.05-2e-3 0.076-4e-3 7e-3 0 0.014 0 0.021-1e-3 0.073-5e-3 0.149-0.014 0.223-0.02 0.077-7e-3 0.153-0.011 0.23-0.019 0.022-2e-3 0.043-3e-3 0.065-5e-3h-0.021c0.018-2e-3 0.038-5e-3 0.056-7e-3 0.117-0.012 0.235-0.025 0.354-0.039 0.067-8e-3 0.135-0.017 0.203-0.026 0.085-0.011 0.17-0.023 0.256-0.035 0.165-0.024 0.334-0.052 0.503-0.081 0.037-6e-3 0.073-0.011 0.11-0.018 0.041-7e-3 0.08-0.012 0.121-0.019 6e-3 -1e-3 0.012-2e-3 0.017-3e-3 -4e-3 0-8e-3 1e-3 -0.012 2e-3 0.023-4e-3 0.049-0.011 0.072-0.015 0.329-0.061 0.665-0.129 1.011-0.209 0.05-0.011 0.102-0.026 0.152-0.037 0.301-0.071 0.609-0.15 0.923-0.236 0.109-0.03 0.22-0.061 0.331-0.093 0.257-0.074 0.52-0.153 0.786-0.236 0.102-0.031 0.202-0.062 0.296-0.091-0.067 0.022-0.13 0.038-0.197 0.06 1.728-0.549 3.645-1.308 5.796-2.326 1.889-0.846 3.966-1.892 5.882-3.104 0.164-0.094 0.323-0.183 0.489-0.28 0.175-0.102 0.341-0.206 0.509-0.309-0.093 0.057-0.181 0.115-0.276 0.172 0.103-0.064 0.235-0.143 0.343-0.213 0.097-0.06 0.194-0.12 0.289-0.181 0.127-0.081 0.249-0.164 0.372-0.247 0.113-0.076 0.226-0.151 0.336-0.228 0.119-0.083 0.233-0.168 0.348-0.252 0.105-0.077 0.211-0.154 0.313-0.232 0.111-0.085 0.217-0.172 0.324-0.258 0.097-0.078 0.196-0.156 0.29-0.235 0.104-0.087 0.202-0.175 0.301-0.263 0.089-0.079 0.181-0.158 0.266-0.238 3e-3 -3e-3 6e-3 -5e-3 9e-3 -8e-3 -0.011 0.01-0.02 0.021-0.031 0.031 9e-3 -0.01 0.022-0.022 0.032-0.032 0.092-0.086 0.179-0.172 0.267-0.258 0.082-0.08 0.165-0.159 0.243-0.24 0.04-0.041 0.078-0.082 0.118-0.123 0.048-0.051 0.093-0.102 0.14-0.153 0.072-0.079 0.147-0.157 0.216-0.236 0.077-0.088 0.147-0.176 0.22-0.264 0.041-0.049 0.084-0.099 0.123-0.148 0.012-0.015 0.026-0.03 0.038-0.045-2e-3 3e-3 -5e-3 7e-3 -7e-3 0.01 4e-3 -5e-3 7e-3 -9e-3 0.01-0.014 0.014-0.018 0.027-0.036 0.041-0.054 0.068-0.088 0.13-0.176 0.194-0.264 0.05-0.069 0.104-0.137 0.151-0.206 0.011-0.016 0.021-0.031 0.031-0.047 0.01-0.015 0.021-0.029 0.03-0.043s0.016-0.027 0.025-0.041c0.04-0.061 0.076-0.121 0.114-0.182 0.044-0.071 0.093-0.141 0.135-0.212 8e-3 -0.013 0.015-0.027 0.023-0.04 0.032-0.056 0.061-0.111 0.091-0.166 2e-3 -4e-3 5e-3 -8e-3 7e-3 -0.011-0.012 0.022-0.02 0.044-0.033 0.066 0.011-0.022 0.027-0.051 0.038-0.074l1e-3 -2e-3c0.027-0.049 0.052-0.098 0.078-0.147 0.026-0.05 0.056-0.1 0.081-0.15 5e-3 -0.011 0.01-0.022 0.016-0.033 0.04-0.081 0.073-0.162 0.109-0.242 0.022-0.049 0.046-0.099 0.067-0.148 0.01-0.023 0.021-0.046 0.031-0.069 4e-3 -0.01 9e-3 -0.02 0.013-0.03 4e-3 -9e-3 7e-3 -0.018 0.01-0.027 0.022-0.056 0.039-0.111 0.06-0.167-5e-3 0.016-0.01 0.037-0.015 0.053 0.027-0.071 0.047-0.142 0.071-0.213 0.018-0.055 0.041-0.11 0.058-0.165 2e-3 -7e-3 4e-3 -0.013 6e-3 -0.02 4e-3 -0.013 7e-3 -0.026 0.011-0.038 3e-3 -9e-3 6e-3 -0.018 8e-3 -0.028 4e-3 -0.014 8e-3 -0.027 0.011-0.041 7e-3 -0.023 0.01-0.046 0.016-0.069 0.014-0.051 0.025-0.102 0.037-0.153 0.013-0.055 0.031-0.111 0.042-0.166 1e-3 -4e-3 2e-3 -9e-3 3e-3 -0.013 2e-3 -0.011 4e-3 -0.021 6e-3 -0.032 0 0 1e-3 -1e-3 1e-3 -2e-3 -1e-3 5e-3 -1e-3 0.011-2e-3 0.016l3e-3 -0.018c0.011-0.056 0.017-0.111 0.026-0.167 5e-3 -0.03 0.013-0.061 0.018-0.091 4e-3 -0.029 5e-3 -0.058 9e-3 -0.088 5e-3 -0.038 0.014-0.076 0.018-0.113v-6e-3c0-3e-3 1e-3 -5e-3 1e-3 -7e-3 0-4e-3 0-7e-3 1e-3 -0.011 0.015-0.149 0.023-0.297 0.024-0.444v0.095c2e-3 -0.036 2e-3 -0.078 3e-3 -0.12z" fill="#fff"/>
  <path d="m404.56 337.64c0 0.13-0.01 0.263-0.022 0.395-4e-3 0.042-5e-3 0.084-9e-3 0.126-0.017 0.156-0.042 0.312-0.074 0.47-9e-3 0.044-0.022 0.088-0.032 0.131-0.027 0.119-0.056 0.238-0.092 0.358-0.018 0.061-0.041 0.122-0.061 0.184-0.034 0.101-0.068 0.203-0.107 0.304-0.033 0.086-0.072 0.172-0.109 0.258-0.038 0.087-0.075 0.174-0.117 0.261-0.042 0.086-0.088 0.172-0.134 0.258-0.045 0.086-0.09 0.171-0.139 0.257-0.076 0.132-0.16 0.264-0.246 0.397-0.037 0.056-0.07 0.113-0.108 0.169-0.128 0.188-0.264 0.376-0.412 0.564-0.01 0.013-0.022 0.026-0.033 0.039-0.167 0.211-0.35 0.422-0.541 0.632-0.054 0.059-0.11 0.118-0.166 0.178-0.187 0.197-0.383 0.394-0.592 0.589-0.028 0.026-0.054 0.053-0.083 0.08-0.2 0.185-0.41 0.368-0.629 0.549-0.055 0.046-0.116 0.091-0.172 0.137-0.168 0.135-0.338 0.271-0.516 0.404-0.086 0.065-0.177 0.128-0.265 0.192-0.158 0.114-0.317 0.227-0.482 0.339-0.1 0.068-0.204 0.136-0.307 0.204-0.164 0.107-0.331 0.213-0.502 0.318-0.168 0.104-0.335 0.208-0.51 0.31-0.549 0.319-1.083 0.622-1.609 0.915-0.163 0.091-0.322 0.177-0.482 0.266-0.367 0.202-0.73 0.399-1.086 0.589-0.17 0.09-0.339 0.18-0.506 0.268-0.367 0.193-0.728 0.378-1.083 0.557-0.127 0.064-0.258 0.132-0.383 0.195-0.471 0.235-0.933 0.458-1.383 0.67-0.092 0.043-0.18 0.082-0.271 0.125-0.359 0.167-0.712 0.327-1.058 0.479-0.143 0.063-0.284 0.123-0.425 0.184-0.298 0.128-0.591 0.251-0.879 0.368-0.134 0.055-0.269 0.11-0.401 0.163-0.339 0.135-0.672 0.262-0.998 0.382-0.064 0.024-0.131 0.05-0.195 0.073-0.387 0.14-0.764 0.269-1.133 0.39-0.149 0.049-0.293 0.093-0.439 0.138-0.165 0.052-0.332 0.104-0.494 0.152-0.149 0.044-0.293 0.083-0.439 0.123-0.157 0.044-0.315 0.088-0.469 0.128-0.143 0.037-0.283 0.07-0.424 0.104-0.15 0.036-0.301 0.074-0.448 0.107-0.138 0.031-0.273 0.058-0.408 0.086-0.144 0.03-0.289 0.06-0.43 0.086-0.134 0.025-0.265 0.046-0.397 0.068-0.135 0.023-0.271 0.046-0.404 0.065-0.129 0.019-0.255 0.035-0.381 0.051-0.131 0.017-0.262 0.034-0.39 0.047-0.082 9e-3 -0.162 0.015-0.244 0.022-0.301 0.028-0.596 0.048-0.884 0.06-0.049 2e-3 -0.1 6e-3 -0.149 7e-3 -0.281 9e-3 -0.556 0.01-0.825 4e-3 -0.073-2e-3 -0.143-6e-3 -0.215-8e-3 -0.183-7e-3 -0.364-0.016-0.541-0.029-0.083-6e-3 -0.166-0.013-0.248-0.021-0.178-0.016-0.353-0.036-0.526-0.059-0.069-9e-3 -0.139-0.017-0.207-0.027-0.25-0.037-0.495-0.079-0.735-0.129-0.037-8e-3 -0.072-0.017-0.108-0.024-0.268-0.058-0.531-0.123-0.788-0.195-0.036-0.01-0.073-0.019-0.108-0.03-0.409-0.118-0.804-0.254-1.188-0.405-0.019-8e-3 -0.037-0.016-0.056-0.023-0.386-0.153-0.76-0.322-1.127-0.501-0.033-0.016-0.066-0.032-0.099-0.049-0.375-0.187-0.743-0.385-1.104-0.594-1.043-0.602-1.956-1.232-2.607-1.932-0.651-0.701-1.042-1.472-1.039-2.357l-3e-3 1.192c-5e-3 1.771 1.56 3.085 3.646 4.29 0.362 0.209 0.73 0.407 1.105 0.594 0.032 0.016 0.065 0.032 0.097 0.048 0.366 0.18 0.741 0.348 1.127 0.501 0.013 5e-3 0.025 0.012 0.038 0.017 6e-3 3e-3 0.013 4e-3 0.02 7e-3 0.383 0.15 0.778 0.286 1.187 0.404 0.01 3e-3 0.019 7e-3 0.03 0.01 0.026 8e-3 0.054 0.012 0.08 0.02 0.257 0.072 0.519 0.137 0.788 0.195 0.025 5e-3 0.048 0.013 0.074 0.018 0.011 2e-3 0.022 4e-3 0.032 6e-3 0.24 0.049 0.486 0.092 0.736 0.129 0.021 3e-3 0.04 8e-3 0.061 0.011 0.047 7e-3 0.096 0.01 0.144 0.016 0.173 0.023 0.349 0.043 0.527 0.059 0.044 4e-3 0.086 0.011 0.131 0.015 0.038 3e-3 0.079 3e-3 0.117 6e-3 0.177 0.013 0.358 0.022 0.541 0.029 0.054 2e-3 0.106 7e-3 0.161 9e-3 0.018 0 0.037-1e-3 0.054 0 0.269 6e-3 0.543 5e-3 0.824-4e-3 0.015-1e-3 0.029 0 0.044 0 0.035-1e-3 0.073-6e-3 0.108-7e-3 0.286-0.012 0.58-0.032 0.881-0.06 0.046-4e-3 0.089-4e-3 0.135-9e-3 0.036-4e-3 0.075-9e-3 0.111-0.013 0.127-0.013 0.257-0.03 0.387-0.047 0.127-0.016 0.254-0.032 0.383-0.051 0.133-0.02 0.268-0.043 0.403-0.065 0.096-0.016 0.188-0.028 0.285-0.046 0.036-7e-3 0.075-0.016 0.111-0.022 0.141-0.026 0.286-0.056 0.43-0.086 0.135-0.028 0.27-0.055 0.408-0.086 0.147-0.033 0.297-0.07 0.448-0.106 0.141-0.034 0.281-0.067 0.425-0.105 0.153-0.04 0.31-0.084 0.467-0.128 0.147-0.041 0.293-0.08 0.442-0.124 0.16-0.047 0.325-0.099 0.488-0.15 0.121-0.038 0.238-0.071 0.362-0.111 0.027-9e-3 0.056-0.02 0.083-0.028 0.369-0.12 0.745-0.249 1.131-0.389 0.065-0.024 0.134-0.051 0.2-0.075 0.325-0.12 0.656-0.246 0.994-0.38 0.132-0.052 0.267-0.108 0.401-0.162 0.289-0.118 0.582-0.241 0.881-0.369 0.14-0.06 0.279-0.12 0.421-0.182 0.348-0.153 0.704-0.315 1.066-0.483 0.089-0.041 0.174-0.079 0.264-0.121 0.452-0.212 0.914-0.437 1.387-0.672 0.123-0.061 0.25-0.127 0.375-0.19 0.357-0.181 0.72-0.367 1.09-0.561 0.167-0.088 0.336-0.177 0.506-0.268 0.356-0.19 0.718-0.387 1.085-0.589 0.161-0.088 0.32-0.175 0.482-0.266 0.526-0.294 1.06-0.596 1.609-0.915 0.11-0.064 0.219-0.129 0.327-0.193 0.063-0.038 0.12-0.077 0.182-0.116 0.171-0.106 0.339-0.212 0.503-0.319 0.103-0.067 0.205-0.135 0.306-0.203 0.166-0.113 0.326-0.226 0.484-0.341 0.088-0.064 0.178-0.127 0.263-0.191 0.179-0.134 0.351-0.27 0.519-0.406 0.056-0.045 0.115-0.089 0.17-0.135 0.219-0.182 0.429-0.365 0.629-0.55l0.021-0.018c0.022-0.021 0.04-0.041 0.062-0.062 0.208-0.195 0.404-0.391 0.591-0.588 0.056-0.059 0.112-0.119 0.166-0.178 0.191-0.21 0.374-0.42 0.541-0.631 8e-3 -0.01 0.019-0.021 0.027-0.031 2e-3 -3e-3 4e-3 -5e-3 6e-3 -8e-3 0.147-0.188 0.284-0.376 0.412-0.564 0.038-0.056 0.071-0.113 0.108-0.169 0.086-0.132 0.17-0.265 0.246-0.397 0.012-0.021 0.027-0.042 0.039-0.063 0.036-0.064 0.066-0.129 0.1-0.193 0.046-0.086 0.092-0.172 0.134-0.259 0.042-0.088 0.079-0.175 0.118-0.262 0.037-0.086 0.076-0.171 0.109-0.257 9e-3 -0.022 0.02-0.045 0.028-0.067 0.03-0.079 0.053-0.158 0.079-0.238 0.02-0.061 0.043-0.123 0.061-0.185 0.036-0.12 0.064-0.24 0.092-0.359 0.01-0.043 0.023-0.086 0.032-0.129 1e-3 -5e-3 3e-3 -0.01 4e-3 -0.015 0.031-0.153 0.053-0.304 0.07-0.455 5e-3 -0.042 6e-3 -0.084 9e-3 -0.126 8e-3 -0.09 0.017-0.18 0.02-0.27 1e-3 -0.042 2e-3 -0.083 2e-3 -0.125z" fill="#abc2d5"/>
  <g fill="#85a4c2">
   <path d="m398.54 331.34-0.186-0.063c-0.04-0.012-0.082-0.019-0.122-0.031l-0.364-0.112c-1e-3 0-2e-3 0-3e-3 -1e-3 -0.279-0.075-0.567-0.14-0.862-0.197l0.034 6e-3 -0.035-6e-3c-0.078-0.015-0.159-0.026-0.238-0.04l-0.389-0.065c-7e-3 -1e-3 -0.013-1e-3 -0.02-2e-3l0.37 0.061c-0.062-0.011-0.127-0.019-0.19-0.029-0.065-0.012-0.13-0.023-0.191-0.034 3e-3 0 7e-3 1e-3 0.01 1e-3l-0.076-0.013-0.168-0.018c-0.106-0.013-0.214-0.024-0.321-0.035l-0.359-0.039c-0.135-0.011-0.293-0.02-0.451-0.027-0.011-1e-3 -0.023-1e-3 -0.034-2e-3 -0.129-6e-3 -0.255-0.012-0.367-0.018l0.047 1e-3 -0.066-2e-3h-0.026l-0.223-5e-3c-0.043 0-0.086 3e-3 -0.129 3e-3l-0.296-2e-3h-4e-3l-0.221-1e-3c-0.147 3e-3 -0.318 0.01-0.489 0.017-0.124 5e-3 -0.248 0.01-0.371 0.017-0.021 1e-3 -0.045 2e-3 -0.065 3e-3 -0.022 1e-3 -0.041 4e-3 -0.063 5e-3 -0.203 0.013-0.404 0.028-0.605 0.046-0.05 5e-3 -0.103 9e-3 -0.152 0.014-0.659 0.065-1.305 0.161-1.93 0.277l-0.165 0.028c-0.298 0.051-0.636 0.124-0.971 0.203-0.017 4e-3 -0.037 8e-3 -0.053 0.011l-0.092 0.023c-0.328 0.079-0.65 0.161-0.923 0.232-6e-3 2e-3 -0.419 0.109-1.035 0.304-6e-3 2e-3 -0.014 4e-3 -0.02 6e-3l-0.023 8e-3c-0.074 0.023-0.145 0.046-0.224 0.072 2e-3 -1e-3 4e-3 -1e-3 6e-3 -2e-3 -0.019 7e-3 -0.044 0.015-0.064 0.021 0.287 1.195 1.057 2.251 2.141 3.224 4.575-2.599 7.797-3.571 9.978-3.839z"/>
   <path d="m403.75 337.63c0-0.036-1e-3 -0.084-1e-3 -0.12v0.039c-3e-3 -0.266-0.01-0.425-0.041-0.629-4e-3 -0.034-9e-3 -0.068-0.015-0.103-2e-3 -0.014-4e-3 -0.027-6e-3 -0.04-5e-3 -0.039-0.01-0.077-0.016-0.123l7e-3 0.068c-0.045-0.315-0.117-0.631-0.229-0.958-3e-3 -0.01-6e-3 -0.02-9e-3 -0.03-6e-3 -0.018-0.012-0.035-0.018-0.053-0.431-1.318-1.334-2.272-2.181-2.917-0.103-0.081-0.206-0.159-0.298-0.225-0.186-0.135-0.452-0.287-0.647-0.41 0.037 0.022 0.082 0.048 0.116 0.068l-0.12-0.07-0.129-0.074-0.424-0.213c-1.993 0.022-5.394 0.736-10.723 3.736 0.84 0.685 1.831 1.33 2.915 1.956 0.238 0.137 0.478 0.272 0.719 0.404 0.016 9e-3 0.032 0.017 0.048 0.025 0.035 0.019 0.071 0.038 0.106 0.057l0.09 0.048c0.019 0.01 0.039 0.021 0.058 0.031 0.03 0.016 0.061 0.032 0.091 0.048 0.04 0.021 0.081 0.042 0.121 0.063 0.024 0.012 0.046 0.026 0.07 0.038l0.048 0.024c0.033 0.017 0.066 0.035 0.1 0.052 0.033 0.017 0.067 0.033 0.1 0.05l0.063 0.033c4e-3 2e-3 8e-3 4e-3 0.011 6e-3 0.028 0.014 0.057 0.027 0.085 0.041l0.081 0.039c0.053 0.026 0.106 0.053 0.159 0.078 0.04 0.02 0.081 0.039 0.121 0.058 0.026 0.012 0.051 0.026 0.077 0.038 0.017 8e-3 0.033 0.016 0.049 0.023 0.04 0.019 0.08 0.036 0.12 0.055 0.032 0.015 0.063 0.03 0.095 0.045 0.053 0.025 0.108 0.049 0.161 0.073 0.026 0.012 0.052 0.025 0.079 0.037 0.031 0.014 0.063 0.026 0.093 0.039 0.05 0.022 0.099 0.046 0.149 0.068 0.021 9e-3 0.043 0.019 0.064 0.028 0.023 0.01 0.047 0.02 0.07 0.03 0.041 0.017 0.082 0.033 0.123 0.051 0.044 0.018 0.087 0.038 0.131 0.056l0.021 9e-3c6e-3 3e-3 0.013 6e-3 0.019 8e-3 0.056 0.023 0.114 0.044 0.171 0.067 9e-3 4e-3 0.018 7e-3 0.027 0.011 0.021 8e-3 0.04 0.019 0.061 0.027-3e-3 -2e-3 -7e-3 -4e-3 -0.01-6e-3l0.081 0.033c0.029 0.012 0.059 0.023 0.088 0.035 0.031 0.012 0.063 0.024 0.095 0.036 0.044 0.017 0.089 0.033 0.134 0.05 0.03 0.011 0.059 0.023 0.089 0.035 0.017 6e-3 0.033 0.012 0.05 0.019 0.022 8e-3 0.045 0.017 0.068 0.025 0.049 0.018 0.099 0.035 0.148 0.052 0.038 0.014 0.075 0.028 0.113 0.041 0.035 0.012 0.07 0.025 0.106 0.037 0.081 0.028 0.163 0.053 0.245 0.08 0.077 0.026 0.154 0.052 0.232 0.076 0.023 7e-3 0.045 0.016 0.068 0.023 0.01 3e-3 0.02 7e-3 0.03 0.01 0.029 9e-3 0.059 0.017 0.088 0.026 0.026 8e-3 0.051 0.017 0.077 0.025 0.027 8e-3 0.056 0.016 0.083 0.024 0.035 0.01 0.069 0.021 0.104 0.031l0.063 0.018c0.012 4e-3 0.024 9e-3 0.036 0.012l-6e-3 -3e-3c0.066 0.019 0.134 0.035 0.2 0.053 0.022 6e-3 0.044 0.012 0.066 0.018 0.072 0.02 0.141 0.042 0.213 0.061 0.022 6e-3 0.045 0.012 0.067 0.018 0.035 9e-3 0.07 0.017 0.105 0.026 0.024 6e-3 0.048 0.013 0.072 0.019 7e-3 1e-3 0.014 3e-3 0.02 4e-3 0.021 5e-3 0.043 9e-3 0.063 0.014 0.079 0.019 0.161 0.036 0.242 0.054 3e-3 1e-3 6e-3 2e-3 9e-3 2e-3 0.027 6e-3 0.054 0.013 0.082 0.019 0.072 0.017 0.143 0.035 0.216 0.05 0.034 7e-3 0.067 0.016 0.102 0.023 0 0 2e-3 1e-3 3e-3 1e-3 3e-3 1e-3 7e-3 1e-3 0.01 2e-3 5e-3 1e-3 0.01 2e-3 0.016 3e-3 0.018 4e-3 0.037 7e-3 0.055 0.01 0.017 3e-3 0.033 8e-3 0.05 0.011 0.107 0.022 0.219 0.039 0.327 0.059 0.072 0.013 0.142 0.03 0.215 0.042 0.032 6e-3 0.065 0.01 0.098 0.016 0.068 0.012 0.136 0.023 0.205 0.034 0.027 4e-3 0.054 0.01 0.081 0.014 0.02 3e-3 0.041 5e-3 0.06 8e-3 0.035 5e-3 0.07 0.01 0.106 0.015 0.027 4e-3 0.052 0.01 0.078 0.013-6e-3 -2e-3 -0.012-5e-3 -0.018-7e-3h4e-3c0.042 6e-3 0.084 0.011 0.126 0.017 0.045 6e-3 0.089 0.013 0.135 0.019 0.055 7e-3 0.108 0.016 0.163 0.023s0.109 0.014 0.164 0.02c0.027 3e-3 0.054 6e-3 0.081 9e-3 0.035 4e-3 0.07 8e-3 0.106 0.012 0.037 4e-3 0.075 7e-3 0.113 0.011 0.064 6e-3 0.131 9e-3 0.195 0.015 0.058 5e-3 0.112 0.015 0.17 0.02-7e-3 -2e-3 -0.014-4e-3 -0.02-6e-3 0.121 0.01 0.242 0.021 0.365 0.029 0.074 5e-3 0.148 9e-3 0.222 0.014 0.044 2e-3 0.086 6e-3 0.13 9e-3 0.035 2e-3 0.072 2e-3 0.107 3e-3 0.057 3e-3 0.115 3e-3 0.172 5e-3 0.081 3e-3 0.16 7e-3 0.241 0.01 9e-3 -0.016 0.019-0.031 0.029-0.046 0.042-0.066 0.087-0.132 0.126-0.198 8e-3 -0.013 0.014-0.025 0.021-0.038 0.03-0.052 0.057-0.104 0.086-0.156 2e-3 -3e-3 4e-3 -7e-3 6e-3 -0.011-0.012 0.021-0.019 0.041-0.031 0.062 0.01-0.021 0.025-0.048 0.035-0.069v-1e-3c0.026-0.047 0.049-0.092 0.073-0.138 0.025-0.047 0.053-0.094 0.076-0.141 5e-3 -0.01 0.01-0.021 0.015-0.031 0.037-0.076 0.068-0.152 0.102-0.227 0.021-0.046 0.043-0.093 0.063-0.139 9e-3 -0.021 0.02-0.043 0.029-0.064 4e-3 -9e-3 8e-3 -0.019 0.012-0.028 3e-3 -8e-3 6e-3 -0.017 9e-3 -0.025 0.021-0.052 0.037-0.104 0.056-0.156-4e-3 0.015-0.01 0.035-0.014 0.049 0.025-0.067 0.044-0.133 0.066-0.2 0.017-0.051 0.039-0.103 0.054-0.155 2e-3 -6e-3 3e-3 -0.012 5e-3 -0.018 4e-3 -0.012 7e-3 -0.024 0.01-0.036 3e-3 -9e-3 5e-3 -0.017 8e-3 -0.026 4e-3 -0.013 7e-3 -0.026 0.011-0.038 6e-3 -0.022 0.01-0.043 0.015-0.064 0.013-0.048 0.023-0.095 0.035-0.143 0.012-0.052 0.029-0.104 0.04-0.156 1e-3 -4e-3 2e-3 -8e-3 2e-3 -0.013 2e-3 -0.01 4e-3 -0.02 5e-3 -0.03l1e-3 -2e-3c-1e-3 4e-3 -1e-3 0.01-2e-3 0.015 1e-3 -6e-3 1e-3 -0.012 3e-3 -0.017 0.01-0.052 0.016-0.104 0.025-0.156 5e-3 -0.028 0.013-0.057 0.017-0.085s5e-3 -0.055 8e-3 -0.082c4e-3 -0.035 0.013-0.071 0.017-0.106v-6e-3c0-2e-3 1e-3 -5e-3 1e-3 -7e-3 0-4e-3 0-7e-3 1e-3 -0.011 0.014-0.14 0.021-0.278 0.022-0.416v0.089c1e-3 -0.035 2e-3 -0.074 2e-3 -0.113z"/>
  </g>
 </g>
 <g transform="matrix(.99771 0 0 .99771 19.934 -146.38)">
  <path d="m118.9 292.85c0.074-0.44 0.114-0.882 0.113-1.324z" fill="#abc2d5"/>
  <path d="m73.146 291.91c2e-3 0.058 5e-3 0.115 9e-3 0.173 3e-3 0.05 6e-3 0.1 0.01 0.15 5e-3 0.058 0.01 0.116 0.016 0.174 5e-3 0.049 0.01 0.099 0.016 0.149 7e-3 0.059 0.015 0.117 0.024 0.175l0.021 0.147c3e-3 0.016 6e-3 0.032 9e-3 0.049l-0.11-1.275c-1e-3 0.086 2e-3 0.172 5e-3 0.258z" fill="#abc2d5"/>
  <path d="m118.9 292.85c-0.502 2.969-2.719 5.862-6.657 8.135-0.27 0.156-0.546 0.307-0.826 0.454-0.093 0.049-0.19 0.095-0.284 0.143-0.189 0.096-0.378 0.191-0.57 0.283-0.115 0.055-0.232 0.106-0.348 0.159-0.177 0.081-0.354 0.162-0.534 0.239-0.126 0.054-0.253 0.105-0.38 0.158-0.185 0.076-0.369 0.152-0.557 0.224-0.08 0.031-0.16 0.061-0.24 0.091-0.236 0.089-0.473 0.175-0.713 0.258-0.055 0.019-0.109 0.039-0.165 0.058-0.289 0.098-0.582 0.192-0.876 0.283-0.073 0.023-0.147 0.044-0.221 0.066-0.195 0.058-0.392 0.114-0.59 0.169-0.23 0.064-0.463 0.125-0.696 0.184-0.141 0.036-0.282 0.073-0.424 0.107-0.255 0.061-0.513 0.118-0.771 0.174-0.123 0.027-0.245 0.055-0.368 0.08-0.234 0.048-0.47 0.091-0.706 0.134-0.13 0.024-0.259 0.05-0.389 0.073-0.309 0.053-0.62 0.101-0.932 0.147-0.059 9e-3 -0.117 0.019-0.176 0.027-0.364 0.051-0.729 0.098-1.096 0.139-0.078 9e-3 -0.157 0.015-0.235 0.023-0.289 0.031-0.578 0.06-0.869 0.084-0.132 0.011-0.266 0.018-0.398 0.028-0.237 0.017-0.475 0.035-0.713 0.048-0.152 8e-3 -0.305 0.012-0.458 0.019-0.219 9e-3 -0.438 0.02-0.657 0.026-0.141 4e-3 -0.283 4e-3 -0.424 6e-3 -0.239 4e-3 -0.477 8e-3 -0.716 7e-3 -0.156 0-0.312-4e-3 -0.468-7e-3 -0.224-3e-3 -0.447-6e-3 -0.671-0.013-0.145-5e-3 -0.29-0.012-0.434-0.018-0.258-0.011-0.515-0.023-0.772-0.039-0.155-0.01-0.31-0.021-0.464-0.032-0.246-0.018-0.493-0.039-0.738-0.061-0.197-0.018-0.395-0.037-0.591-0.058-0.08-9e-3 -0.16-0.017-0.24-0.026-0.318-0.036-0.634-0.076-0.95-0.12-0.047-7e-3 -0.094-0.014-0.141-0.021-0.276-0.04-0.551-0.083-0.825-0.129-0.081-0.014-0.162-0.027-0.243-0.041-0.179-0.031-0.357-0.066-0.535-0.1-0.201-0.038-0.401-0.077-0.6-0.118-0.163-0.034-0.325-0.07-0.486-0.106-0.196-0.044-0.391-0.088-0.585-0.135-0.161-0.039-0.322-0.08-0.482-0.122-0.191-0.049-0.382-0.1-0.571-0.152-0.159-0.044-0.317-0.09-0.475-0.136-0.187-0.055-0.374-0.112-0.559-0.17-0.196-0.062-0.391-0.124-0.584-0.189-0.069-0.023-0.139-0.046-0.207-0.07-0.286-0.099-0.569-0.201-0.848-0.308-0.052-0.02-0.103-0.04-0.154-0.06-0.237-0.092-0.471-0.187-0.703-0.284-0.071-0.03-0.141-0.059-0.211-0.089-0.272-0.117-0.541-0.237-0.806-0.362-0.032-0.015-0.063-0.031-0.095-0.046-0.236-0.113-0.469-0.23-0.7-0.349-0.068-0.035-0.136-0.071-0.204-0.107-0.257-0.136-0.511-0.275-0.759-0.419-0.116-0.067-0.23-0.136-0.343-0.204-0.072-0.044-0.143-0.088-0.214-0.132-0.064-0.04-0.128-0.079-0.19-0.119-0.07-0.045-0.139-0.09-0.208-0.135l-0.183-0.12c-0.068-0.046-0.135-0.092-0.201-0.138-0.059-0.041-0.118-0.081-0.176-0.122-0.066-0.047-0.13-0.094-0.194-0.14-0.057-0.041-0.114-0.082-0.17-0.124-0.063-0.047-0.125-0.095-0.188-0.143-0.055-0.042-0.109-0.083-0.163-0.125-0.062-0.049-0.122-0.098-0.182-0.146-0.052-0.042-0.104-0.084-0.155-0.126-0.06-0.05-0.118-0.1-0.177-0.15-0.049-0.042-0.099-0.084-0.147-0.126-0.059-0.051-0.116-0.103-0.173-0.155-0.045-0.041-0.091-0.081-0.135-0.122-0.12-0.111-0.236-0.223-0.35-0.335-0.03-0.03-0.059-0.06-0.089-0.089-0.085-0.086-0.169-0.172-0.25-0.259-0.033-0.035-0.067-0.071-0.099-0.106-0.089-0.096-0.175-0.193-0.26-0.291-0.017-0.019-0.034-0.038-0.05-0.058-0.099-0.116-0.195-0.232-0.287-0.35-0.03-0.038-0.06-0.077-0.089-0.115-0.051-0.067-0.103-0.133-0.152-0.2-0.031-0.043-0.062-0.085-0.092-0.128-0.047-0.065-0.092-0.13-0.137-0.196-0.03-0.043-0.059-0.087-0.088-0.13-0.044-0.066-0.087-0.133-0.129-0.199-0.027-0.042-0.053-0.084-0.079-0.127-0.044-0.072-0.086-0.144-0.128-0.217-0.022-0.037-0.044-0.074-0.065-0.112-0.036-0.064-0.07-0.128-0.104-0.193-0.022-0.041-0.044-0.081-0.065-0.122-0.038-0.073-0.073-0.147-0.109-0.22-0.015-0.032-0.032-0.064-0.047-0.096-0.049-0.106-0.097-0.212-0.141-0.318l-0.018-0.045c-0.038-0.091-0.075-0.183-0.109-0.275-0.016-0.042-0.03-0.084-0.045-0.127-0.023-0.063-0.046-0.126-0.067-0.189-0.015-0.046-0.029-0.091-0.043-0.137-0.019-0.06-0.038-0.12-0.056-0.181-0.014-0.047-0.026-0.095-0.039-0.142-0.016-0.059-0.032-0.117-0.047-0.176-0.012-0.049-0.023-0.098-0.034-0.147-0.013-0.057-0.027-0.115-0.038-0.173-0.01-0.048-0.018-0.097-0.027-0.146-8e-3 -0.043-0.015-0.085-0.023-0.128l5.495 63.558c4e-3 1.478 0.136 2.664 0.385 3.64 0 5e-3 -2e-3 0.01-2e-3 0.015 0 0.474 0.198 0.97 0.545 1.467 0.759 1.457 1.986 2.21 3.659 2.736 0.027 0.013 0.049 0.026 0.076 0.039 3.34 1.568 7.833 2.431 12.653 2.431 4.819 0 9.313-0.863 12.653-2.431 2.681-1.258 4.281-2.844 4.281-4.242 0-6e-3 -2e-3 -0.012-2e-3 -0.018 0.318-0.96 0.485-2.171 0.481-3.766z" fill="#e4ecf0"/>
  <path d="m72.674 291.63c2e-3 0.059 5e-3 0.118 9e-3 0.177 3e-3 0.051 6e-3 0.102 0.01 0.153 5e-3 0.059 0.011 0.119 0.017 0.178 5e-3 0.051 0.01 0.101 0.016 0.152 7e-3 0.06 0.016 0.119 0.024 0.179 7e-3 0.05 0.014 0.1 0.022 0.15 0.01 0.06 0.021 0.12 0.032 0.18 9e-3 0.049 0.018 0.099 0.028 0.148 0.012 0.059 0.026 0.118 0.039 0.176 0.011 0.05 0.022 0.1 0.034 0.15 0.015 0.06 0.031 0.12 0.048 0.18 0.013 0.048 0.025 0.097 0.039 0.145 0.018 0.062 0.038 0.123 0.057 0.184 0.015 0.047 0.028 0.093 0.044 0.139 0.021 0.065 0.045 0.129 0.068 0.193 0.015 0.043 0.03 0.086 0.046 0.129 0.035 0.094 0.073 0.187 0.112 0.28l0.018 0.046c0.046 0.108 0.094 0.216 0.144 0.324 0.015 0.033 0.032 0.065 0.048 0.098 0.036 0.075 0.072 0.15 0.111 0.225 0.021 0.041 0.044 0.083 0.066 0.124 0.035 0.066 0.07 0.131 0.106 0.197 0.021 0.038 0.044 0.076 0.066 0.114 0.043 0.074 0.086 0.148 0.131 0.221 0.026 0.043 0.054 0.086 0.081 0.129 0.043 0.068 0.086 0.136 0.131 0.203 0.03 0.044 0.06 0.089 0.09 0.133 0.046 0.067 0.093 0.133 0.14 0.2 0.031 0.044 0.062 0.087 0.094 0.13 0.05 0.068 0.102 0.136 0.155 0.204 0.03 0.039 0.06 0.079 0.091 0.118 0.095 0.12 0.192 0.238 0.293 0.357 0.017 0.02 0.035 0.039 0.051 0.059 0.086 0.099 0.174 0.198 0.265 0.297 0.033 0.036 0.067 0.072 0.101 0.108 0.083 0.088 0.168 0.176 0.255 0.264 0.03 0.03 0.06 0.061 0.09 0.091 0.116 0.115 0.235 0.229 0.357 0.342 0.045 0.042 0.092 0.083 0.138 0.124 0.058 0.053 0.116 0.106 0.176 0.158 0.049 0.043 0.1 0.086 0.15 0.128 0.06 0.051 0.119 0.102 0.18 0.153 0.052 0.043 0.105 0.085 0.158 0.128 0.062 0.05 0.123 0.1 0.186 0.149 0.055 0.043 0.111 0.085 0.166 0.128 0.063 0.049 0.127 0.097 0.191 0.146 0.057 0.042 0.115 0.084 0.173 0.127 0.066 0.048 0.131 0.096 0.198 0.143 0.059 0.042 0.119 0.083 0.179 0.125 0.068 0.047 0.136 0.094 0.205 0.141 0.061 0.041 0.124 0.082 0.186 0.123 0.07 0.046 0.141 0.092 0.212 0.138 0.064 0.041 0.129 0.081 0.194 0.122 0.072 0.045 0.144 0.09 0.218 0.134 0.115 0.07 0.231 0.139 0.349 0.208 0.253 0.147 0.513 0.289 0.774 0.428 0.069 0.037 0.139 0.073 0.208 0.109 0.235 0.122 0.472 0.241 0.714 0.356 0.033 0.016 0.064 0.032 0.097 0.047 0.27 0.128 0.545 0.25 0.822 0.37 0.071 0.031 0.144 0.061 0.215 0.091 0.236 0.1 0.475 0.196 0.716 0.29 0.052 0.02 0.104 0.042 0.157 0.062 0.285 0.109 0.574 0.213 0.865 0.314 0.07 0.024 0.141 0.048 0.211 0.071 0.197 0.066 0.396 0.13 0.595 0.193 0.189 0.06 0.379 0.117 0.57 0.173 0.161 0.047 0.322 0.094 0.484 0.139 0.193 0.054 0.387 0.105 0.582 0.155 0.164 0.042 0.327 0.084 0.492 0.124 0.198 0.048 0.397 0.093 0.596 0.138 0.165 0.037 0.33 0.074 0.496 0.109 0.203 0.042 0.407 0.081 0.612 0.12 0.182 0.035 0.363 0.07 0.546 0.102 0.082 0.014 0.165 0.028 0.247 0.042 0.28 0.047 0.56 0.091 0.842 0.132 0.048 7e-3 0.096 0.015 0.144 0.022 0.321 0.045 0.644 0.086 0.968 0.123 0.082 9e-3 0.163 0.018 0.245 0.027 0.201 0.022 0.402 0.04 0.603 0.059 0.25 0.023 0.501 0.044 0.753 0.063 0.158 0.012 0.315 0.023 0.474 0.033 0.262 0.016 0.525 0.029 0.787 0.04 0.148 6e-3 0.295 0.014 0.443 0.018 0.228 7e-3 0.456 0.01 0.684 0.013 0.159 2e-3 0.318 6e-3 0.478 7e-3 0.243 1e-3 0.487-4e-3 0.73-7e-3 0.144-2e-3 0.289-2e-3 0.433-6e-3 0.223-6e-3 0.446-0.017 0.67-0.026 0.156-7e-3 0.312-0.011 0.467-0.019 0.243-0.013 0.485-0.032 0.727-0.049 0.135-0.01 0.271-0.017 0.406-0.028 0.296-0.025 0.591-0.055 0.886-0.086 0.08-8e-3 0.16-0.015 0.24-0.023 0.374-0.042 0.747-0.089 1.118-0.141 0.06-9e-3 0.119-0.019 0.179-0.028 0.318-0.047 0.635-0.096 0.951-0.15 0.133-0.023 0.264-0.05 0.397-0.074 0.241-0.044 0.482-0.088 0.72-0.137 0.126-0.026 0.25-0.055 0.375-0.082 0.263-0.057 0.526-0.115 0.786-0.178 0.145-0.035 0.289-0.072 0.433-0.109 0.238-0.061 0.475-0.123 0.71-0.188 0.201-0.056 0.402-0.113 0.602-0.172 0.075-0.022 0.151-0.044 0.225-0.067 0.301-0.092 0.599-0.188 0.894-0.288 0.056-0.019 0.112-0.04 0.168-0.059 0.245-0.085 0.487-0.172 0.727-0.263 0.082-0.031 0.163-0.062 0.245-0.093 0.191-0.074 0.38-0.151 0.568-0.229 0.13-0.053 0.26-0.106 0.388-0.161 0.184-0.079 0.364-0.161 0.544-0.244 0.118-0.054 0.238-0.107 0.355-0.162 0.197-0.093 0.389-0.191 0.582-0.289 0.096-0.049 0.195-0.096 0.29-0.146 0.286-0.15 0.567-0.303 0.843-0.462 4.611-2.662 6.914-6.157 6.904-9.646l0.035 10.733c0.02 7.049-7.943 10.696-13.663 12.306-2.918 0.822-5.938 1.281-8.969 1.353-3.755 0.089-7.521-0.418-11.124-1.479-3.325-0.98-6.552-2.341-9.164-4.668-2.119-1.888-3.852-4.448-3.86-7.38l-0.035-10.733c4e-3 0.084 6e-3 0.171 9e-3 0.258z" fill="#192127"/>
  <path d="m79.573 281.72c-9.164 5.291-9.212 13.869-0.108 19.159 9.106 5.292 23.915 5.292 33.079 1e-3s9.212-13.869 0.106-19.16c-9.105-5.291-23.914-5.291-33.077 0z" fill="#4b6375"/>
  <path d="m78.27 282.5c2e-3 0.045 4e-3 0.089 7e-3 0.134 2e-3 0.039 4e-3 0.078 7e-3 0.116 4e-3 0.045 8e-3 0.09 0.013 0.135 4e-3 0.038 7e-3 0.077 0.012 0.115 6e-3 0.045 0.012 0.091 0.019 0.136 5e-3 0.038 0.01 0.076 0.017 0.114 7e-3 0.046 0.016 0.091 0.024 0.137 7e-3 0.038 0.014 0.075 0.021 0.113 9e-3 0.045 0.02 0.089 0.03 0.134 9e-3 0.038 0.017 0.076 0.026 0.114 0.011 0.046 0.024 0.091 0.036 0.137 0.01 0.037 0.019 0.074 0.03 0.11 0.014 0.047 0.029 0.093 0.043 0.14 0.011 0.035 0.022 0.071 0.033 0.106 0.016 0.049 0.034 0.098 0.052 0.147 0.012 0.033 0.023 0.066 0.035 0.098 0.027 0.071 0.055 0.142 0.085 0.213 5e-3 0.012 9e-3 0.023 0.014 0.035 0.035 0.082 0.071 0.165 0.11 0.247 0.012 0.025 0.024 0.049 0.036 0.074 0.028 0.057 0.055 0.114 0.084 0.171 0.016 0.031 0.034 0.063 0.05 0.094 0.027 0.05 0.053 0.1 0.081 0.15 0.016 0.029 0.034 0.058 0.05 0.087 0.032 0.056 0.065 0.112 0.099 0.168 0.02 0.033 0.041 0.065 0.062 0.098 0.033 0.052 0.066 0.103 0.1 0.155 0.022 0.034 0.045 0.067 0.068 0.101 0.035 0.051 0.07 0.101 0.106 0.152 0.024 0.033 0.047 0.066 0.072 0.099 0.038 0.052 0.078 0.104 0.118 0.155 0.023 0.03 0.046 0.06 0.069 0.089 0.072 0.091 0.146 0.181 0.223 0.271 0.013 0.015 0.026 0.03 0.039 0.044 0.065 0.076 0.132 0.151 0.201 0.225 0.025 0.028 0.051 0.055 0.077 0.082 0.063 0.067 0.128 0.134 0.194 0.201 0.023 0.023 0.045 0.046 0.069 0.069 0.088 0.087 0.178 0.174 0.271 0.26 0.034 0.032 0.07 0.063 0.105 0.095 0.044 0.04 0.088 0.08 0.134 0.12 0.037 0.033 0.076 0.065 0.114 0.098 0.045 0.039 0.09 0.078 0.137 0.116 0.039 0.033 0.08 0.065 0.12 0.098 0.047 0.038 0.093 0.076 0.141 0.113 0.041 0.033 0.084 0.065 0.126 0.097 0.048 0.037 0.096 0.074 0.145 0.111 0.043 0.032 0.088 0.064 0.132 0.096 0.05 0.036 0.1 0.073 0.151 0.109 0.045 0.032 0.091 0.063 0.136 0.095 0.052 0.036 0.103 0.072 0.156 0.107 0.047 0.031 0.094 0.062 0.142 0.093 0.053 0.035 0.107 0.07 0.161 0.105 0.049 0.031 0.098 0.062 0.147 0.092l0.165 0.102c0.088 0.053 0.176 0.106 0.266 0.158 0.192 0.112 0.39 0.219 0.589 0.325 0.053 0.028 0.105 0.055 0.158 0.083 0.178 0.092 0.359 0.183 0.542 0.27 0.025 0.012 0.049 0.024 0.074 0.036 0.205 0.097 0.414 0.19 0.625 0.281 0.054 0.023 0.109 0.046 0.164 0.069 0.18 0.076 0.361 0.149 0.545 0.22 0.04 0.016 0.079 0.032 0.119 0.047 0.217 0.083 0.436 0.162 0.658 0.239 0.053 0.018 0.107 0.036 0.161 0.054 0.15 0.05 0.301 0.099 0.453 0.146 0.144 0.045 0.288 0.089 0.433 0.132 0.122 0.036 0.245 0.071 0.368 0.105 0.147 0.041 0.295 0.08 0.443 0.118 0.124 0.032 0.249 0.064 0.374 0.094 0.15 0.036 0.301 0.071 0.453 0.105 0.125 0.028 0.251 0.056 0.377 0.082 0.154 0.032 0.309 0.062 0.465 0.091 0.138 0.026 0.276 0.053 0.415 0.078 0.063 0.011 0.125 0.022 0.188 0.032 0.213 0.036 0.426 0.069 0.64 0.1 0.036 5e-3 0.073 0.011 0.109 0.016 0.244 0.034 0.49 0.065 0.736 0.093 0.062 7e-3 0.124 0.014 0.186 0.02 0.152 0.017 0.305 0.031 0.458 0.045 0.19 0.018 0.381 0.033 0.572 0.047 0.12 9e-3 0.24 0.018 0.36 0.025 0.199 0.012 0.399 0.022 0.599 0.03 0.112 5e-3 0.224 0.01 0.337 0.014 0.173 5e-3 0.346 8e-3 0.52 0.01 0.121 2e-3 0.242 5e-3 0.363 5e-3 0.185 0 0.37-3e-3 0.555-6e-3 0.11-2e-3 0.219-2e-3 0.329-5e-3 0.17-4e-3 0.339-0.013 0.509-0.02 0.118-5e-3 0.237-8e-3 0.355-0.015 0.185-0.01 0.368-0.024 0.553-0.038 0.103-7e-3 0.206-0.013 0.309-0.021 0.225-0.019 0.45-0.042 0.674-0.065 0.061-6e-3 0.122-0.011 0.182-0.018 0.284-0.032 0.568-0.068 0.85-0.108 0.046-6e-3 0.091-0.015 0.136-0.021 0.242-0.035 0.483-0.072 0.723-0.114 0.101-0.017 0.201-0.038 0.301-0.056 0.183-0.034 0.366-0.067 0.548-0.104 0.096-0.02 0.19-0.042 0.285-0.062 0.2-0.043 0.4-0.087 0.598-0.135 0.11-0.027 0.22-0.055 0.329-0.083 0.181-0.046 0.361-0.093 0.54-0.143 0.153-0.043 0.306-0.086 0.457-0.131l0.171-0.051c0.229-0.07 0.455-0.143 0.679-0.219 0.043-0.015 0.085-0.03 0.128-0.045 0.186-0.064 0.37-0.131 0.553-0.2 0.062-0.023 0.124-0.047 0.186-0.071 0.145-0.056 0.289-0.115 0.432-0.174 0.098-0.04 0.197-0.08 0.295-0.122 0.14-0.06 0.277-0.123 0.414-0.185 0.09-0.041 0.181-0.081 0.27-0.123 0.149-0.071 0.296-0.145 0.442-0.219 0.073-0.037 0.148-0.073 0.22-0.111 0.217-0.114 0.431-0.231 0.641-0.352 3.505-2.024 5.256-4.68 5.248-7.332l0.026 8.159c0.015 5.358-6.038 8.13-10.386 9.355-2.218 0.625-4.514 0.974-6.818 1.028-2.854 0.067-5.717-0.317-8.455-1.124-2.527-0.745-4.981-1.779-6.966-3.548-1.611-1.435-2.928-3.381-2.934-5.61l-0.026-8.159c-2e-3 0.072 0 0.139 2e-3 0.205z" fill="#abc2d5"/>
  <path d="m83.514 274.97c6.966-4.022 18.223-4.022 25.143 0 6.922 4.022 6.885 10.543-0.08 14.565-6.966 4.022-18.223 4.022-25.145-1e-3 -6.921-4.022-6.884-10.542 0.082-14.564z" fill="#d6e0e6"/>
  <path d="m99.085 321c-0.071 0.103-0.142 0.199-0.213 0.304-0.202 0.324-0.407 0.66-0.608 1.006-0.169 0.351-0.391 0.707-0.535 1.079-0.159 0.371-0.325 0.751-0.427 1.14-0.145 0.39-0.2 0.781-0.278 1.181-0.055 0.203-0.032 0.394-0.051 0.595-2e-3 0.195-0.04 0.409-0.018 0.595 0.035 0.491 0.069 0.984 0.133 1.406 0.108 0.89 0.306 1.84 0.518 2.768 0.209 0.932 0.436 1.87 0.605 2.799 0.184 0.923 0.282 1.845 0.333 2.712 0.027 0.872 0 1.694-0.097 2.441-0.083 0.749-0.241 1.418-0.377 2.007-0.167 0.582-0.32 1.084-0.459 1.491-0.312 0.801-0.49 1.259-0.49 1.259s0.11-0.477 0.301-1.31c0.078-0.419 0.155-0.932 0.234-1.515 0.047-0.589 0.105-1.248 0.08-1.966-0.011-0.716-0.099-1.486-0.241-2.285-0.166-0.798-0.377-1.625-0.678-2.471-0.285-0.847-0.634-1.715-0.983-2.624-0.351-0.912-0.697-1.842-0.979-2.868-0.155-0.531-0.257-1.006-0.361-1.479-0.073-0.293-0.075-0.569-0.113-0.857-0.02-0.283-0.077-0.576-0.052-0.851 0.016-0.557 0.028-1.121 0.132-1.645 0.066-0.542 0.199-1.045 0.331-1.544 0.12-0.507 0.311-0.958 0.463-1.428 0.022-0.055 0.045-0.106 0.067-0.161-5.035 0.896-8.913 6.48-8.913 13.239 0 7.383 4.627 13.368 10.334 13.368s10.334-5.985 10.334-13.368c-1e-3 -6.34-3.414-11.645-7.992-13.018z" fill="#354854"/>
  <path d="m102.8 275.06c-0.538 0.311-0.541 0.814-6e-3 1.124l4.291 2.494c0.535 0.311 1.403 0.311 1.941 0s0.541-0.814 6e-3 -1.124l-4.291-2.494c-0.535-0.311-1.403-0.311-1.941 0z" fill="#354854"/>
 </g>
</svg>
